<svg width="137" height="21" viewBox="0 0 137 21" fill="none" xmlns="http://www.w3.org/2000/svg">
<path d="M134.432 5.27277C134.317 4.30118 133.85 3.54692 133.032 3.00999C132.214 2.47306 131.21 2.20459 130.021 2.20459C129.152 2.20459 128.392 2.34522 127.74 2.62647C127.094 2.90772 126.589 3.29443 126.225 3.78662C125.867 4.27881 125.688 4.83811 125.688 5.46453C125.688 5.98868 125.812 6.43932 126.062 6.81645C126.317 7.18719 126.643 7.4972 127.04 7.74649C127.436 7.98939 127.851 8.19074 128.286 8.35054C128.721 8.50395 129.12 8.6286 129.485 8.72448L131.479 9.26141C131.99 9.39564 132.559 9.58101 133.186 9.81752C133.818 10.054 134.422 10.3768 134.998 10.7859C135.579 11.1886 136.059 11.7064 136.436 12.3392C136.813 12.972 137.002 13.7486 137.002 14.6691C137.002 15.7302 136.724 16.689 136.167 17.5455C135.618 18.402 134.812 19.0828 133.751 19.5878C132.697 20.0927 131.415 20.3452 129.906 20.3452C128.5 20.3452 127.282 20.1183 126.253 19.6645C125.231 19.2106 124.425 18.5778 123.837 17.766C123.256 16.9542 122.926 16.0114 122.85 14.9375H125.304C125.368 15.679 125.617 16.2927 126.052 16.7785C126.493 17.2579 127.049 17.6158 127.72 17.8523C128.398 18.0824 129.127 18.1975 129.906 18.1975C130.814 18.1975 131.629 18.0505 132.351 17.7564C133.074 17.456 133.646 17.0405 134.068 16.51C134.49 15.9731 134.7 15.3466 134.7 14.6307C134.7 13.9787 134.518 13.4482 134.154 13.0391C133.79 12.63 133.31 12.2976 132.716 12.042C132.121 11.7863 131.479 11.5625 130.789 11.3708L128.372 10.6804C126.838 10.2394 125.624 9.60978 124.729 8.79159C123.834 7.97341 123.387 6.90274 123.387 5.57959C123.387 4.48016 123.684 3.52135 124.278 2.70317C124.879 1.8786 125.684 1.23939 126.694 0.785556C127.711 0.325329 128.845 0.0952148 130.098 0.0952148C131.364 0.0952148 132.489 0.322132 133.473 0.775968C134.458 1.22341 135.237 1.83705 135.813 2.61688C136.394 3.39671 136.701 4.28201 136.733 5.27277H134.432Z" fill="black"/>
<path d="M116.567 0.363647H118.945V13.3651C118.945 14.7074 118.628 15.9059 117.996 16.9606C117.369 18.0089 116.484 18.8367 115.34 19.4439C114.196 20.0448 112.853 20.3452 111.313 20.3452C109.772 20.3452 108.43 20.0448 107.286 19.4439C106.142 18.8367 105.253 18.0089 104.62 16.9606C103.994 15.9059 103.681 14.7074 103.681 13.3651V0.363647H106.059V13.1733C106.059 14.1321 106.269 14.9855 106.691 15.7333C107.113 16.4748 107.714 17.0597 108.494 17.4879C109.28 17.9098 110.22 18.1208 111.313 18.1208C112.406 18.1208 113.345 17.9098 114.132 17.4879C114.918 17.0597 115.519 16.4748 115.934 15.7333C116.356 14.9855 116.567 14.1321 116.567 13.1733V0.363647Z" fill="black"/>
<path d="M77.6897 2.47302V0.363647H92.417V2.47302H86.2423V20H83.8644V2.47302H77.6897Z" fill="black"/>
<path d="M71.6373 0.363647H74.0152V13.3651C74.0152 14.7074 73.6988 15.9059 73.066 16.9606C72.4395 18.0089 71.5542 18.8367 70.4101 19.4439C69.2659 20.0448 67.9236 20.3452 66.3831 20.3452C64.8426 20.3452 63.5003 20.0448 62.3561 19.4439C61.2119 18.8367 60.3234 18.0089 59.6906 16.9606C59.0642 15.9059 58.751 14.7074 58.751 13.3651V0.363647H61.1288V13.1733C61.1288 14.1321 61.3398 14.9855 61.7616 15.7333C62.1835 16.4748 62.7844 17.0597 63.5642 17.4879C64.3504 17.9098 65.29 18.1208 66.3831 18.1208C67.4761 18.1208 68.4157 17.9098 69.202 17.4879C69.9882 17.0597 70.589 16.4748 71.0045 15.7333C71.4264 14.9855 71.6373 14.1321 71.6373 13.1733V0.363647Z" fill="black"/>
<path d="M54.7527 10.1819C54.7527 12.2529 54.3788 14.0427 53.6309 15.5512C52.883 17.0597 51.8571 18.2231 50.5531 19.0412C49.2492 19.8594 47.7598 20.2685 46.0851 20.2685C44.4104 20.2685 42.921 19.8594 41.6171 19.0412C40.3131 18.2231 39.2872 17.0597 38.5393 15.5512C37.7914 14.0427 37.4175 12.2529 37.4175 10.1819C37.4175 8.11084 37.7914 6.32107 38.5393 4.81255C39.2872 3.30402 40.3131 2.14067 41.6171 1.32249C42.921 0.504306 44.4104 0.0952148 46.0851 0.0952148C47.7598 0.0952148 49.2492 0.504306 50.5531 1.32249C51.8571 2.14067 52.883 3.30402 53.6309 4.81255C54.3788 6.32107 54.7527 8.11084 54.7527 10.1819ZM52.4516 10.1819C52.4516 8.48158 52.1671 7.04657 51.5982 5.87682C51.0357 4.70708 50.2719 3.82178 49.3067 3.22093C48.3479 2.62007 47.274 2.31965 46.0851 2.31965C44.8962 2.31965 43.8191 2.62007 42.8539 3.22093C41.8951 3.82178 41.1313 4.70708 40.5624 5.87682C39.9999 7.04657 39.7186 8.48158 39.7186 10.1819C39.7186 11.8821 39.9999 13.3172 40.5624 14.4869C41.1313 15.6567 41.8951 16.5419 42.8539 17.1428C43.8191 17.7437 44.8962 18.0441 46.0851 18.0441C47.274 18.0441 48.3479 17.7437 49.3067 17.1428C50.2719 16.5419 51.0357 15.6567 51.5982 14.4869C52.1671 13.3172 52.4516 11.8821 52.4516 10.1819Z" fill="black"/>
<path d="M20.624 20V0.363647H27.4891C28.857 0.363647 29.9852 0.600153 30.8737 1.07316C31.7622 1.53978 32.4237 2.1694 32.8584 2.96201C33.2931 3.74824 33.5104 4.62075 33.5104 5.57956C33.5104 6.42331 33.3602 7.12004 33.0597 7.66975C32.7657 8.21947 32.3758 8.65413 31.89 8.97373C31.4106 9.29334 30.8896 9.52984 30.3271 9.68325V9.87501C30.928 9.91336 31.532 10.1243 32.1393 10.5078C32.7465 10.8913 33.2547 11.4411 33.6638 12.157C34.0729 12.8729 34.2774 13.7486 34.2774 14.7841C34.2774 15.7685 34.0537 16.6538 33.6063 17.44C33.1588 18.2262 32.4525 18.8494 31.4873 19.3097C30.5221 19.7699 29.2661 20 27.7192 20H20.624ZM23.0019 17.8906H27.7192C29.2725 17.8906 30.3751 17.5902 31.0271 16.9894C31.6855 16.3821 32.0146 15.647 32.0146 14.7841C32.0146 14.1193 31.8453 13.5057 31.5065 12.9432C31.1677 12.3743 30.6851 11.9205 30.0587 11.5817C29.4323 11.2365 28.6908 11.0639 27.8342 11.0639H23.0019V17.8906ZM23.0019 8.99291H27.4124C28.1283 8.99291 28.7739 8.85228 29.3492 8.57103C29.9308 8.28978 30.3911 7.89348 30.7298 7.38211C31.075 6.87075 31.2476 6.2699 31.2476 5.57956C31.2476 4.71663 30.9472 3.98474 30.3463 3.38389C29.7455 2.77664 28.7931 2.47302 27.4891 2.47302H23.0019V8.99291Z" fill="black"/>
<path d="M3.18333 20H0.69043L7.90066 0.363647H10.3552L17.5654 20H15.0725L9.20463 3.47018H9.05123L3.18333 20ZM4.10378 12.3296H14.1521V14.4389H4.10378V12.3296Z" fill="black"/>
</svg>
