<svg width="173" height="21" viewBox="0 0 173 21" fill="none" xmlns="http://www.w3.org/2000/svg">
<path d="M169.581 5.27277C169.466 4.30118 169 3.54692 168.181 3.00999C167.363 2.47306 166.36 2.20459 165.171 2.20459C164.301 2.20459 163.541 2.34522 162.889 2.62647C162.243 2.90772 161.738 3.29443 161.374 3.78662C161.016 4.27881 160.837 4.83811 160.837 5.46453C160.837 5.98868 160.962 6.43932 161.211 6.81645C161.467 7.18719 161.793 7.4972 162.189 7.74649C162.585 7.98939 163.001 8.19074 163.435 8.35054C163.87 8.50395 164.27 8.6286 164.634 8.72448L166.628 9.26141C167.14 9.39564 167.708 9.58101 168.335 9.81752C168.968 10.054 169.572 10.3768 170.147 10.7859C170.729 11.1886 171.208 11.7064 171.585 12.3392C171.962 12.972 172.151 13.7486 172.151 14.6691C172.151 15.7302 171.873 16.689 171.317 17.5455C170.767 18.402 169.962 19.0828 168.901 19.5878C167.846 20.0927 166.564 20.3452 165.056 20.3452C163.649 20.3452 162.432 20.1183 161.403 19.6645C160.38 19.2106 159.575 18.5778 158.986 17.766C158.405 16.9542 158.076 16.0114 157.999 14.9375H160.453C160.517 15.679 160.767 16.2927 161.201 16.7785C161.642 17.2579 162.198 17.6158 162.87 17.8523C163.547 18.0824 164.276 18.1975 165.056 18.1975C165.963 18.1975 166.778 18.0505 167.501 17.7564C168.223 17.456 168.795 17.0405 169.217 16.51C169.639 15.9731 169.85 15.3466 169.85 14.6307C169.85 13.9787 169.668 13.4482 169.303 13.0391C168.939 12.63 168.459 12.2976 167.865 12.042C167.271 11.7863 166.628 11.5625 165.938 11.3708L163.522 10.6804C161.988 10.2394 160.773 9.60978 159.878 8.79159C158.983 7.97341 158.536 6.90274 158.536 5.57959C158.536 4.48016 158.833 3.52135 159.428 2.70317C160.028 1.8786 160.834 1.23939 161.844 0.785556C162.86 0.325329 163.995 0.0952148 165.247 0.0952148C166.513 0.0952148 167.638 0.322132 168.622 0.775968C169.607 1.22341 170.387 1.83705 170.962 2.61688C171.544 3.39671 171.85 4.28201 171.882 5.27277H169.581Z" fill="black"/>
<path d="M151.716 0.363647H154.094V13.3651C154.094 14.7074 153.778 15.9059 153.145 16.9606C152.519 18.0089 151.633 18.8367 150.489 19.4439C149.345 20.0448 148.003 20.3452 146.462 20.3452C144.922 20.3452 143.579 20.0448 142.435 19.4439C141.291 18.8367 140.402 18.0089 139.77 16.9606C139.143 15.9059 138.83 14.7074 138.83 13.3651V0.363647H141.208V13.1733C141.208 14.1321 141.419 14.9855 141.841 15.7333C142.262 16.4748 142.863 17.0597 143.643 17.4879C144.429 17.9098 145.369 18.1208 146.462 18.1208C147.555 18.1208 148.495 17.9098 149.281 17.4879C150.067 17.0597 150.668 16.4748 151.084 15.7333C151.505 14.9855 151.716 14.1321 151.716 13.1733V0.363647Z" fill="black"/>
<path d="M112.839 2.47302V0.363647H127.566V2.47302H121.392V20H119.014V2.47302H112.839Z" fill="black"/>
<path d="M110.071 6.50005H107.693C107.552 5.8161 107.306 5.21524 106.955 4.69749C106.609 4.17973 106.187 3.74507 105.689 3.39351C105.197 3.03556 104.65 2.76709 104.049 2.58811C103.448 2.40914 102.822 2.31965 102.17 2.31965C100.981 2.31965 99.9041 2.62007 98.9389 3.22093C97.9801 3.82178 97.2162 4.70708 96.6473 5.87682C96.0848 7.04657 95.8036 8.48158 95.8036 10.1819C95.8036 11.8821 96.0848 13.3172 96.6473 14.4869C97.2162 15.6567 97.9801 16.5419 98.9389 17.1428C99.9041 17.7437 100.981 18.0441 102.17 18.0441C102.822 18.0441 103.448 17.9546 104.049 17.7756C104.65 17.5966 105.197 17.3314 105.689 16.9798C106.187 16.6219 106.609 16.184 106.955 15.6662C107.306 15.1421 107.552 14.5412 107.693 13.8637H110.071C109.892 14.8672 109.566 15.7653 109.093 16.5579C108.62 17.3505 108.032 18.0249 107.328 18.581C106.625 19.1307 105.836 19.5494 104.96 19.837C104.091 20.1247 103.161 20.2685 102.17 20.2685C100.495 20.2685 99.006 19.8594 97.702 19.0412C96.398 18.2231 95.3721 17.0597 94.6242 15.5512C93.8764 14.0427 93.5024 12.2529 93.5024 10.1819C93.5024 8.11084 93.8764 6.32107 94.6242 4.81255C95.3721 3.30402 96.398 2.14067 97.702 1.32249C99.006 0.504306 100.495 0.0952148 102.17 0.0952148C103.161 0.0952148 104.091 0.239036 104.96 0.526679C105.836 0.814321 106.625 1.2362 107.328 1.7923C108.032 2.34202 108.62 3.01318 109.093 3.8058C109.566 4.59202 109.892 5.4901 110.071 6.50005Z" fill="black"/>
<path d="M77.7516 20H75.2587L82.4689 0.363647H84.9234L92.1337 20H89.6408L83.7729 3.47018H83.6195L77.7516 20ZM78.672 12.3296H88.7203V14.4389H78.672V12.3296Z" fill="black"/>
<path d="M60.843 2.47302V0.363647H75.5703V2.47302H69.3956V20H67.0177V2.47302H60.843Z" fill="black"/>
<path d="M57.1588 0.363647V20H54.8577L44.1574 4.5824H43.9656V20H41.5878V0.363647H43.8889L54.6275 15.8196H54.8193V0.363647H57.1588Z" fill="black"/>
<path d="M37.5896 10.1819C37.5896 12.2529 37.2157 14.0427 36.4678 15.5512C35.7199 17.0597 34.694 18.2231 33.39 19.0412C32.0861 19.8594 30.5967 20.2685 28.922 20.2685C27.2473 20.2685 25.7579 19.8594 24.454 19.0412C23.15 18.2231 22.1241 17.0597 21.3762 15.5512C20.6283 14.0427 20.2544 12.2529 20.2544 10.1819C20.2544 8.11084 20.6283 6.32107 21.3762 4.81255C22.1241 3.30402 23.15 2.14067 24.454 1.32249C25.7579 0.504306 27.2473 0.0952148 28.922 0.0952148C30.5967 0.0952148 32.0861 0.504306 33.39 1.32249C34.694 2.14067 35.7199 3.30402 36.4678 4.81255C37.2157 6.32107 37.5896 8.11084 37.5896 10.1819ZM35.2885 10.1819C35.2885 8.48158 35.004 7.04657 34.4351 5.87682C33.8726 4.70708 33.1088 3.82178 32.1436 3.22093C31.1848 2.62007 30.1109 2.31965 28.922 2.31965C27.7331 2.31965 26.656 2.62007 25.6908 3.22093C24.732 3.82178 23.9682 4.70708 23.3993 5.87682C22.8368 7.04657 22.5555 8.48158 22.5555 10.1819C22.5555 11.8821 22.8368 13.3172 23.3993 14.4869C23.9682 15.6567 24.732 16.5419 25.6908 17.1428C26.656 17.7437 27.7331 18.0441 28.922 18.0441C30.1109 18.0441 31.1848 17.7437 32.1436 17.1428C33.1088 16.5419 33.8726 15.6567 34.4351 14.4869C35.004 13.3172 35.2885 11.8821 35.2885 10.1819Z" fill="black"/>
<path d="M17.179 6.50005H14.8012C14.6606 5.8161 14.4145 5.21524 14.0629 4.69749C13.7177 4.17973 13.2959 3.74507 12.7973 3.39351C12.3051 3.03556 11.7586 2.76709 11.1577 2.58811C10.5569 2.40914 9.93044 2.31965 9.27845 2.31965C8.08953 2.31965 7.01247 2.62007 6.04727 3.22093C5.08847 3.82178 4.32462 4.70708 3.75573 5.87682C3.19323 7.04657 2.91198 8.48158 2.91198 10.1819C2.91198 11.8821 3.19323 13.3172 3.75573 14.4869C4.32462 15.6567 5.08847 16.5419 6.04727 17.1428C7.01247 17.7437 8.08953 18.0441 9.27845 18.0441C9.93044 18.0441 10.5569 17.9546 11.1577 17.7756C11.7586 17.5966 12.3051 17.3314 12.7973 16.9798C13.2959 16.6219 13.7177 16.184 14.0629 15.6662C14.4145 15.1421 14.6606 14.5412 14.8012 13.8637H17.179C17 14.8672 16.6741 15.7653 16.201 16.5579C15.728 17.3505 15.14 18.0249 14.4368 18.581C13.7337 19.1307 12.9443 19.5494 12.0686 19.837C11.1993 20.1247 10.2692 20.2685 9.27845 20.2685C7.60374 20.2685 6.11439 19.8594 4.81041 19.0412C3.50644 18.2231 2.48051 17.0597 1.73264 15.5512C0.984775 14.0427 0.61084 12.2529 0.61084 10.1819C0.61084 8.11084 0.984775 6.32107 1.73264 4.81255C2.48051 3.30402 3.50644 2.14067 4.81041 1.32249C6.11439 0.504306 7.60374 0.0952148 9.27845 0.0952148C10.2692 0.0952148 11.1993 0.239036 12.0686 0.526679C12.9443 0.814321 13.7337 1.2362 14.4368 1.7923C15.14 2.34202 15.728 3.01318 16.201 3.8058C16.6741 4.59202 17 5.4901 17.179 6.50005Z" fill="black"/>
</svg>
