<svg width="461" height="30" viewBox="0 0 461 30" fill="none" xmlns="http://www.w3.org/2000/svg">
<path d="M449.831 13.4062V23.25H447.317V6.88635H449.746V9.44316H449.959C450.342 8.6122 450.925 7.94459 451.706 7.44032C452.487 6.92896 453.496 6.67328 454.732 6.67328C455.84 6.67328 456.809 6.90055 457.64 7.3551C458.471 7.80254 459.117 8.48436 459.579 9.40055C460.041 10.3096 460.271 11.4602 460.271 12.8523V23.25H457.757V13.0227C457.757 11.7372 457.423 10.7358 456.756 10.0184C456.088 9.29402 455.172 8.9318 454.007 8.9318C453.205 8.9318 452.487 9.10581 451.855 9.45382C451.23 9.80183 450.737 10.3096 450.374 10.9773C450.012 11.6449 449.831 12.4545 449.831 13.4062Z" fill="black"/>
<path d="M436.064 23.5909C434.587 23.5909 433.291 23.2393 432.176 22.5362C431.068 21.8331 430.201 20.8494 429.576 19.5852C428.958 18.321 428.649 16.8437 428.649 15.1534C428.649 13.4488 428.958 11.9609 429.576 10.6896C430.201 9.41831 431.068 8.43109 432.176 7.72797C433.291 7.02484 434.587 6.67328 436.064 6.67328C437.541 6.67328 438.834 7.02484 439.942 7.72797C441.057 8.43109 441.924 9.41831 442.541 10.6896C443.166 11.9609 443.479 13.4488 443.479 15.1534C443.479 16.8437 443.166 18.321 442.541 19.5852C441.924 20.8494 441.057 21.8331 439.942 22.5362C438.834 23.2393 437.541 23.5909 436.064 23.5909ZM436.064 21.3324C437.186 21.3324 438.11 21.0447 438.834 20.4694C439.559 19.8942 440.095 19.1378 440.443 18.2003C440.791 17.2628 440.965 16.2471 440.965 15.1534C440.965 14.0596 440.791 13.0405 440.443 12.0959C440.095 11.1513 439.559 10.3878 438.834 9.80538C438.11 9.22299 437.186 8.9318 436.064 8.9318C434.942 8.9318 434.019 9.22299 433.294 9.80538C432.57 10.3878 432.034 11.1513 431.686 12.0959C431.338 13.0405 431.164 14.0596 431.164 15.1534C431.164 16.2471 431.338 17.2628 431.686 18.2003C432.034 19.1378 432.57 19.8942 433.294 20.4694C434.019 21.0447 434.942 21.3324 436.064 21.3324Z" fill="black"/>
<path d="M422.297 23.25V6.88636H424.811V23.25H422.297ZM423.576 4.15909C423.086 4.15909 422.663 3.99219 422.308 3.65838C421.96 3.32457 421.786 2.9233 421.786 2.45455C421.786 1.9858 421.96 1.58452 422.308 1.25071C422.663 0.916903 423.086 0.75 423.576 0.75C424.066 0.75 424.485 0.916903 424.833 1.25071C425.188 1.58452 425.365 1.9858 425.365 2.45455C425.365 2.9233 425.188 3.32457 424.833 3.65838C424.485 3.99219 424.066 4.15909 423.576 4.15909Z" fill="black"/>
<path d="M418.515 6.88634V9.01702H410.035V6.88634H418.515ZM412.507 2.96588H415.021V18.5625C415.021 19.2727 415.124 19.8054 415.33 20.1605C415.543 20.5085 415.813 20.7429 416.14 20.8636C416.473 20.9772 416.825 21.0341 417.194 21.0341C417.471 21.0341 417.699 21.0199 417.876 20.9915C418.054 20.9559 418.196 20.9275 418.302 20.9062L418.814 23.1647C418.643 23.2287 418.405 23.2926 418.1 23.3565C417.794 23.4275 417.407 23.463 416.939 23.463C416.228 23.463 415.532 23.3103 414.85 23.0049C414.176 22.6995 413.615 22.2343 413.167 21.6093C412.727 20.9843 412.507 20.196 412.507 19.2443V2.96588Z" fill="black"/>
<path d="M399.31 23.6335C398.273 23.6335 397.332 23.4382 396.487 23.0476C395.642 22.6498 394.97 22.0781 394.473 21.3324C393.976 20.5795 393.728 19.6704 393.728 18.6051C393.728 17.6676 393.912 16.9077 394.282 16.3253C394.651 15.7358 395.144 15.2741 395.762 14.9403C396.38 14.6065 397.062 14.3579 397.808 14.1946C398.561 14.0241 399.317 13.8892 400.077 13.7898C401.071 13.6619 401.877 13.566 402.495 13.5021C403.12 13.4311 403.575 13.3139 403.859 13.1506C404.15 12.9872 404.296 12.7031 404.296 12.2983V12.2131C404.296 11.1619 404.008 10.3452 403.433 9.76277C402.865 9.18038 402.002 8.88919 400.844 8.88919C399.644 8.88919 398.703 9.15197 398.021 9.67754C397.339 10.2031 396.86 10.7642 396.583 11.3608L394.196 10.5085C394.622 9.51419 395.191 8.74004 395.901 8.18606C396.618 7.62498 397.399 7.23436 398.245 7.01419C399.097 6.78691 399.935 6.67328 400.759 6.67328C401.284 6.67328 401.888 6.7372 402.57 6.86504C403.259 6.98578 403.923 7.23791 404.562 7.62143C405.208 8.00495 405.745 8.58379 406.171 9.35794C406.597 10.1321 406.81 11.169 406.81 12.4687V23.25H404.296V21.0341H404.168C403.997 21.3892 403.713 21.7692 403.316 22.174C402.918 22.5788 402.389 22.9233 401.728 23.2074C401.068 23.4915 400.262 23.6335 399.31 23.6335ZM399.693 21.375C400.688 21.375 401.526 21.1797 402.208 20.789C402.897 20.3984 403.415 19.8942 403.763 19.2763C404.118 18.6584 404.296 18.0085 404.296 17.3267V15.0256C404.189 15.1534 403.955 15.2706 403.593 15.3771C403.237 15.4765 402.826 15.5653 402.357 15.6434C401.895 15.7145 401.444 15.7784 401.004 15.8352C400.571 15.8849 400.219 15.9275 399.949 15.9631C399.296 16.0483 398.685 16.1868 398.117 16.3785C397.556 16.5632 397.101 16.8437 396.753 17.2202C396.412 17.5895 396.242 18.0937 396.242 18.7329C396.242 19.6065 396.565 20.267 397.211 20.7145C397.865 21.1548 398.692 21.375 399.693 21.375Z" fill="black"/>
<path d="M383.333 23.25V6.88636H385.761V9.35795H385.932C386.23 8.54829 386.77 7.89133 387.551 7.38707C388.333 6.88281 389.213 6.63068 390.193 6.63068C390.378 6.63068 390.609 6.63423 390.886 6.64133C391.163 6.64843 391.372 6.65909 391.514 6.67329V9.23011C391.429 9.2088 391.234 9.17684 390.928 9.13423C390.63 9.08451 390.314 9.05965 389.98 9.05965C389.185 9.05965 388.475 9.22656 387.85 9.56036C387.232 9.88707 386.742 10.3416 386.379 10.924C386.024 11.4993 385.847 12.1562 385.847 12.8949V23.25H383.333Z" fill="black"/>
<path d="M372.732 23.5909C371.156 23.5909 369.796 23.2429 368.652 22.5469C367.516 21.8437 366.639 20.8636 366.021 19.6065C365.41 18.3423 365.104 16.8721 365.104 15.196C365.104 13.5199 365.41 12.0426 366.021 10.7642C366.639 9.47868 367.498 8.47726 368.599 7.75993C369.707 7.03549 370.999 6.67328 372.477 6.67328C373.329 6.67328 374.171 6.81532 375.002 7.09941C375.832 7.38351 376.589 7.84515 377.271 8.48436C377.953 9.11646 378.496 9.95453 378.901 10.9986C379.305 12.0426 379.508 13.3281 379.508 14.8551V15.9204H366.894V13.7471H376.951C376.951 12.8238 376.766 12 376.397 11.2756C376.035 10.5511 375.516 9.97939 374.842 9.56035C374.174 9.14132 373.386 8.9318 372.477 8.9318C371.475 8.9318 370.609 9.18038 369.877 9.67754C369.153 10.1676 368.595 10.8068 368.205 11.5952C367.814 12.3835 367.619 13.2287 367.619 14.1307V15.5795C367.619 16.8153 367.832 17.8629 368.258 18.7223C368.691 19.5746 369.291 20.2244 370.058 20.6719C370.825 21.1122 371.717 21.3324 372.732 21.3324C373.393 21.3324 373.989 21.24 374.522 21.0554C375.062 20.8636 375.527 20.5795 375.918 20.2031C376.308 19.8196 376.61 19.3437 376.823 18.7756L379.252 19.4574C378.997 20.2812 378.567 21.0057 377.963 21.6307C377.359 22.2486 376.614 22.7315 375.726 23.0795C374.838 23.4204 373.84 23.5909 372.732 23.5909Z" fill="black"/>
<path d="M350.837 13.4062V23.25H348.323V6.88635H350.752V9.44316H350.965C351.348 8.6122 351.931 7.94459 352.712 7.44032C353.493 6.92896 354.502 6.67328 355.738 6.67328C356.845 6.67328 357.815 6.90055 358.646 7.3551C359.477 7.80254 360.123 8.48436 360.585 9.40055C361.046 10.3096 361.277 11.4602 361.277 12.8523V23.25H358.763V13.0227C358.763 11.7372 358.429 10.7358 357.762 10.0184C357.094 9.29402 356.178 8.9318 355.013 8.9318C354.211 8.9318 353.493 9.10581 352.861 9.45382C352.236 9.80183 351.742 10.3096 351.38 10.9773C351.018 11.6449 350.837 12.4545 350.837 13.4062Z" fill="black"/>
<path d="M337.723 23.5909C336.146 23.5909 334.786 23.2429 333.642 22.5469C332.506 21.8437 331.629 20.8636 331.011 19.6065C330.4 18.3423 330.095 16.8721 330.095 15.196C330.095 13.5199 330.4 12.0426 331.011 10.7642C331.629 9.47868 332.488 8.47726 333.589 7.75993C334.697 7.03549 335.99 6.67328 337.467 6.67328C338.319 6.67328 339.161 6.81532 339.992 7.09941C340.823 7.38351 341.579 7.84515 342.261 8.48436C342.943 9.11646 343.486 9.95453 343.891 10.9986C344.296 12.0426 344.498 13.3281 344.498 14.8551V15.9204H331.884V13.7471H341.941C341.941 12.8238 341.757 12 341.387 11.2756C341.025 10.5511 340.507 9.97939 339.832 9.56035C339.164 9.14132 338.376 8.9318 337.467 8.9318C336.465 8.9318 335.599 9.18038 334.867 9.67754C334.143 10.1676 333.586 10.8068 333.195 11.5952C332.804 12.3835 332.609 13.2287 332.609 14.1307V15.5795C332.609 16.8153 332.822 17.8629 333.248 18.7223C333.681 19.5746 334.282 20.2244 335.049 20.6719C335.816 21.1122 336.707 21.3324 337.723 21.3324C338.383 21.3324 338.98 21.24 339.512 21.0554C340.052 20.8636 340.517 20.5795 340.908 20.2031C341.299 19.8196 341.6 19.3437 341.813 18.7756L344.242 19.4574C343.987 20.2812 343.557 21.0057 342.953 21.6307C342.35 22.2486 341.604 22.7315 340.716 23.0795C339.828 23.4204 338.831 23.5909 337.723 23.5909Z" fill="black"/>
<path d="M323.822 8.25002C323.588 7.53269 323.279 6.88994 322.896 6.32176C322.519 5.74647 322.068 5.25641 321.543 4.85159C321.024 4.44676 320.435 4.13781 319.774 3.92474C319.114 3.71167 318.389 3.60514 317.601 3.60514C316.308 3.60514 315.133 3.93894 314.075 4.60656C313.016 5.27417 312.175 6.25784 311.55 7.55755C310.925 8.85727 310.612 10.4517 310.612 12.3409C310.612 14.2301 310.928 15.8246 311.56 17.1243C312.192 18.424 313.048 19.4077 314.128 20.0753C315.207 20.7429 316.422 21.0767 317.771 21.0767C319.021 21.0767 320.122 20.8104 321.074 20.2777C322.033 19.7379 322.778 18.978 323.311 17.9979C323.851 17.0107 324.121 15.8495 324.121 14.5142L324.93 14.6847H318.368V12.3409H326.678V14.6847C326.678 16.4816 326.294 18.0441 325.527 19.3722C324.767 20.7003 323.716 21.7301 322.374 22.4617C321.038 23.1861 319.504 23.5483 317.771 23.5483C315.84 23.5483 314.142 23.0938 312.679 22.1847C311.223 21.2756 310.087 19.983 309.27 18.3068C308.46 16.6307 308.055 14.6421 308.055 12.3409C308.055 10.6151 308.286 9.06323 308.748 7.68539C309.217 6.30045 309.877 5.12147 310.729 4.14846C311.582 3.17545 312.59 2.42971 313.755 1.91124C314.92 1.39278 316.202 1.13354 317.601 1.13354C318.751 1.13354 319.824 1.30755 320.818 1.65556C321.82 1.99647 322.711 2.48298 323.492 3.11508C324.281 3.74008 324.938 4.48937 325.463 5.36295C325.989 6.22943 326.351 7.19178 326.55 8.25002H323.822Z" fill="black"/>
<path d="M296.347 6.88634V9.01702H287.867V6.88634H296.347ZM290.339 2.96588H292.853V18.5625C292.853 19.2727 292.956 19.8054 293.162 20.1605C293.375 20.5085 293.645 20.7429 293.972 20.8636C294.305 20.9772 294.657 21.0341 295.026 21.0341C295.303 21.0341 295.531 21.0199 295.708 20.9915C295.886 20.9559 296.028 20.9275 296.134 20.9062L296.646 23.1647C296.475 23.2287 296.237 23.2926 295.932 23.3565C295.626 23.4275 295.239 23.463 294.771 23.463C294.06 23.463 293.364 23.3103 292.683 23.0049C292.008 22.6995 291.447 22.2343 290.999 21.6093C290.559 20.9843 290.339 20.196 290.339 19.2443V2.96588Z" fill="black"/>
<path d="M274.905 6.88635L278.825 13.5767L282.745 6.88635H285.643L280.359 15.0682L285.643 23.25H282.745L278.825 16.9006L274.905 23.25H272.007L277.206 15.0682L272.007 6.88635H274.905Z" fill="black"/>
<path d="M262.869 23.5909C261.292 23.5909 259.932 23.2429 258.789 22.5469C257.652 21.8437 256.775 20.8636 256.157 19.6065C255.547 18.3423 255.241 16.8721 255.241 15.196C255.241 13.5199 255.547 12.0426 256.157 10.7642C256.775 9.47868 257.635 8.47726 258.736 7.75993C259.843 7.03549 261.136 6.67328 262.613 6.67328C263.466 6.67328 264.307 6.81532 265.138 7.09941C265.969 7.38351 266.726 7.84515 267.407 8.48436C268.089 9.11646 268.633 9.95453 269.037 10.9986C269.442 12.0426 269.645 13.3281 269.645 14.8551V15.9204H257.031V13.7471H267.088C267.088 12.8238 266.903 12 266.534 11.2756C266.172 10.5511 265.653 9.97939 264.978 9.56035C264.311 9.14132 263.522 8.9318 262.613 8.9318C261.612 8.9318 260.745 9.18038 260.014 9.67754C259.29 10.1676 258.732 10.8068 258.341 11.5952C257.951 12.3835 257.755 13.2287 257.755 14.1307V15.5795C257.755 16.8153 257.968 17.8629 258.395 18.7223C258.828 19.5746 259.428 20.2244 260.195 20.6719C260.962 21.1122 261.853 21.3324 262.869 21.3324C263.53 21.3324 264.126 21.24 264.659 21.0554C265.199 20.8636 265.664 20.5795 266.054 20.2031C266.445 19.8196 266.747 19.3437 266.96 18.7756L269.389 19.4574C269.133 20.2812 268.704 21.0057 268.1 21.6307C267.496 22.2486 266.75 22.7315 265.863 23.0795C264.975 23.4204 263.977 23.5909 262.869 23.5909Z" fill="black"/>
<path d="M240.974 13.4062V23.25H238.459V6.88635H240.888V9.44316H241.102C241.485 8.6122 242.067 7.94459 242.849 7.44032C243.63 6.92896 244.638 6.67328 245.874 6.67328C246.982 6.67328 247.952 6.90055 248.783 7.3551C249.614 7.80254 250.26 8.48436 250.722 9.40055C251.183 10.3096 251.414 11.4602 251.414 12.8523V23.25H248.9V13.0227C248.9 11.7372 248.566 10.7358 247.898 10.0184C247.231 9.29402 246.315 8.9318 245.15 8.9318C244.347 8.9318 243.63 9.10581 242.998 9.45382C242.373 9.80183 241.879 10.3096 241.517 10.9773C241.155 11.6449 240.974 12.4545 240.974 13.4062Z" fill="black"/>
<path d="M219.422 23.5909C217.845 23.5909 216.485 23.2429 215.342 22.5469C214.205 21.8437 213.328 20.8636 212.71 19.6065C212.099 18.3423 211.794 16.8721 211.794 15.196C211.794 13.5199 212.099 12.0426 212.71 10.7642C213.328 9.47868 214.187 8.47726 215.288 7.75993C216.396 7.03549 217.689 6.67328 219.166 6.67328C220.018 6.67328 220.86 6.81532 221.691 7.09941C222.522 7.38351 223.278 7.84515 223.96 8.48436C224.642 9.11646 225.185 9.95453 225.59 10.9986C225.995 12.0426 226.197 13.3281 226.197 14.8551V15.9204H213.584V13.7471H223.641C223.641 12.8238 223.456 12 223.087 11.2756C222.724 10.5511 222.206 9.97939 221.531 9.56035C220.864 9.14132 220.075 8.9318 219.166 8.9318C218.165 8.9318 217.298 9.18038 216.567 9.67754C215.842 10.1676 215.285 10.8068 214.894 11.5952C214.503 12.3835 214.308 13.2287 214.308 14.1307V15.5795C214.308 16.8153 214.521 17.8629 214.947 18.7223C215.381 19.5746 215.981 20.2244 216.748 20.6719C217.515 21.1122 218.406 21.3324 219.422 21.3324C220.082 21.3324 220.679 21.24 221.212 21.0554C221.751 20.8636 222.217 20.5795 222.607 20.2031C222.998 19.8196 223.3 19.3437 223.513 18.7756L225.942 19.4574C225.686 20.2812 225.256 21.0057 224.653 21.6307C224.049 22.2486 223.303 22.7315 222.415 23.0795C221.528 23.4204 220.53 23.5909 219.422 23.5909Z" fill="black"/>
<path d="M197.351 13.4063V23.25H194.836V1.43182H197.351V9.44319H197.564C197.947 8.59802 198.523 7.92685 199.29 7.42969C200.064 6.92543 201.094 6.6733 202.379 6.6733C203.494 6.6733 204.471 6.89702 205.309 7.34447C206.147 7.78481 206.797 8.46307 207.258 9.37927C207.727 10.2884 207.961 11.446 207.961 12.8523V23.25H205.447V13.0227C205.447 11.723 205.11 10.718 204.435 10.0078C203.768 9.29049 202.841 8.93182 201.655 8.93182C200.831 8.93182 200.092 9.10583 199.439 9.45384C198.792 9.80185 198.281 10.3097 197.905 10.9773C197.535 11.6449 197.351 12.4546 197.351 13.4063Z" fill="black"/>
<path d="M190.703 6.88634V9.01702H182.223V6.88634H190.703ZM184.694 2.96588H187.208V18.5625C187.208 19.2727 187.311 19.8054 187.517 20.1605C187.73 20.5085 188 20.7429 188.327 20.8636C188.661 20.9772 189.012 21.0341 189.382 21.0341C189.659 21.0341 189.886 21.0199 190.064 20.9915C190.241 20.9559 190.383 20.9275 190.49 20.9062L191.001 23.1647C190.831 23.2287 190.593 23.2926 190.287 23.3565C189.982 23.4275 189.595 23.463 189.126 23.463C188.416 23.463 187.72 23.3103 187.038 23.0049C186.363 22.6995 185.802 22.2343 185.355 21.6093C184.914 20.9843 184.694 20.196 184.694 19.2443V2.96588Z" fill="black"/>
<path d="M163.473 29.7273C162.258 29.7273 161.214 29.571 160.341 29.2585C159.467 28.9531 158.739 28.5483 158.157 28.044C157.581 27.5469 157.123 27.0142 156.782 26.446L158.785 25.0398C159.013 25.3381 159.3 25.679 159.648 26.0625C159.996 26.4531 160.472 26.7905 161.076 27.0746C161.687 27.3657 162.486 27.5113 163.473 27.5113C164.794 27.5113 165.884 27.1917 166.743 26.5525C167.603 25.9133 168.032 24.9119 168.032 23.5483V20.2244H167.819C167.635 20.5227 167.372 20.892 167.031 21.3324C166.697 21.7656 166.214 22.1527 165.582 22.4936C164.957 22.8274 164.112 22.9943 163.047 22.9943C161.726 22.9943 160.54 22.6818 159.488 22.0568C158.444 21.4318 157.617 20.5227 157.006 19.3295C156.402 18.1363 156.101 16.6875 156.101 14.9829C156.101 13.3068 156.395 11.8473 156.985 10.6044C157.574 9.35439 158.395 8.38848 159.446 7.70666C160.497 7.01774 161.711 6.67328 163.089 6.67328C164.155 6.67328 165 6.85084 165.625 7.20595C166.257 7.55396 166.74 7.95169 167.074 8.39913C167.415 8.83947 167.677 9.20169 167.862 9.48578H168.118V6.88635H170.547V23.7187C170.547 25.125 170.227 26.2684 169.588 27.1491C168.956 28.0369 168.103 28.6868 167.031 29.0987C165.966 29.5177 164.78 29.7273 163.473 29.7273ZM163.388 20.7358C164.396 20.7358 165.248 20.505 165.944 20.0433C166.64 19.5817 167.169 18.9176 167.532 18.0511C167.894 17.1846 168.075 16.1477 168.075 14.9403C168.075 13.7613 167.897 12.7209 167.542 11.8189C167.187 10.9169 166.662 10.2102 165.966 9.69885C165.27 9.18748 164.41 8.9318 163.388 8.9318C162.322 8.9318 161.434 9.20169 160.724 9.74146C160.021 10.2812 159.492 11.0057 159.137 11.9148C158.789 12.8238 158.615 13.8324 158.615 14.9403C158.615 16.0767 158.792 17.0817 159.147 17.9552C159.51 18.8217 160.042 19.5035 160.745 20.0007C161.456 20.4907 162.336 20.7358 163.388 20.7358Z" fill="black"/>
<path d="M141.833 13.4062V23.25H139.319V6.88635H141.748V9.44316H141.961C142.344 8.6122 142.927 7.94459 143.708 7.44032C144.489 6.92896 145.498 6.67328 146.734 6.67328C147.842 6.67328 148.811 6.90055 149.642 7.3551C150.473 7.80254 151.119 8.48436 151.581 9.40055C152.043 10.3096 152.273 11.4602 152.273 12.8523V23.25H149.759V13.0227C149.759 11.7372 149.425 10.7358 148.758 10.0184C148.09 9.29402 147.174 8.9318 146.009 8.9318C145.207 8.9318 144.489 9.10581 143.857 9.45382C143.232 9.80183 142.739 10.3096 142.376 10.9773C142.014 11.6449 141.833 12.4545 141.833 13.4062Z" fill="black"/>
<path d="M132.2 23.25V6.88636H134.714V23.25H132.2ZM133.478 4.15909C132.988 4.15909 132.565 3.99219 132.21 3.65838C131.862 3.32457 131.688 2.9233 131.688 2.45455C131.688 1.9858 131.862 1.58452 132.21 1.25071C132.565 0.916903 132.988 0.75 133.478 0.75C133.968 0.75 134.387 0.916903 134.735 1.25071C135.09 1.58452 135.268 1.9858 135.268 2.45455C135.268 2.9233 135.09 3.32457 134.735 3.65838C134.387 3.99219 133.968 4.15909 133.478 4.15909Z" fill="black"/>
<path d="M121.038 23.25V6.88636H123.467V9.35795H123.637C123.935 8.54829 124.475 7.89133 125.256 7.38707C126.038 6.88281 126.918 6.63068 127.898 6.63068C128.083 6.63068 128.314 6.63423 128.591 6.64133C128.868 6.64843 129.077 6.65909 129.219 6.67329V9.23011C129.134 9.2088 128.939 9.17684 128.633 9.13423C128.335 9.08451 128.019 9.05965 127.685 9.05965C126.89 9.05965 126.18 9.22656 125.555 9.56036C124.937 9.88707 124.447 10.3416 124.084 10.924C123.729 11.4993 123.552 12.1562 123.552 12.8949V23.25H121.038Z" fill="black"/>
<path d="M110.437 23.5909C108.861 23.5909 107.501 23.2429 106.357 22.5469C105.221 21.8437 104.344 20.8636 103.726 19.6065C103.115 18.3423 102.81 16.8721 102.81 15.196C102.81 13.5199 103.115 12.0426 103.726 10.7642C104.344 9.47868 105.203 8.47726 106.304 7.75993C107.412 7.03549 108.704 6.67328 110.182 6.67328C111.034 6.67328 111.876 6.81532 112.707 7.09941C113.538 7.38351 114.294 7.84515 114.976 8.48436C115.658 9.11646 116.201 9.95453 116.606 10.9986C117.011 12.0426 117.213 13.3281 117.213 14.8551V15.9204H104.599V13.7471H114.656C114.656 12.8238 114.472 12 114.102 11.2756C113.74 10.5511 113.222 9.97939 112.547 9.56035C111.879 9.14132 111.091 8.9318 110.182 8.9318C109.18 8.9318 108.314 9.18038 107.582 9.67754C106.858 10.1676 106.3 10.8068 105.91 11.5952C105.519 12.3835 105.324 13.2287 105.324 14.1307V15.5795C105.324 16.8153 105.537 17.8629 105.963 18.7223C106.396 19.5746 106.996 20.2244 107.763 20.6719C108.53 21.1122 109.422 21.3324 110.437 21.3324C111.098 21.3324 111.695 21.24 112.227 21.0554C112.767 20.8636 113.232 20.5795 113.623 20.2031C114.013 19.8196 114.315 19.3437 114.528 18.7756L116.957 19.4574C116.702 20.2812 116.272 21.0057 115.668 21.6307C115.065 22.2486 114.319 22.7315 113.431 23.0795C112.543 23.4204 111.545 23.5909 110.437 23.5909Z" fill="black"/>
<path d="M83.4655 23.25L78.4797 6.88635H81.1218L84.6587 19.4148H84.8292L88.3235 6.88635H91.0081L94.4598 19.3721H94.6303L98.1672 6.88635H100.809L95.8235 23.25H93.3519L89.7723 10.679H89.5167L85.9371 23.25H83.4655Z" fill="black"/>
<path d="M69.0622 23.5909C67.585 23.5909 66.2888 23.2393 65.1737 22.5362C64.0658 21.8331 63.1993 20.8494 62.5743 19.5852C61.9564 18.321 61.6475 16.8437 61.6475 15.1534C61.6475 13.4488 61.9564 11.9609 62.5743 10.6896C63.1993 9.41831 64.0658 8.43109 65.1737 7.72797C66.2888 7.02484 67.585 6.67328 69.0622 6.67328C70.5395 6.67328 71.8321 7.02484 72.9401 7.72797C74.0551 8.43109 74.9216 9.41831 75.5395 10.6896C76.1645 11.9609 76.477 13.4488 76.477 15.1534C76.477 16.8437 76.1645 18.321 75.5395 19.5852C74.9216 20.8494 74.0551 21.8331 72.9401 22.5362C71.8321 23.2393 70.5395 23.5909 69.0622 23.5909ZM69.0622 21.3324C70.1844 21.3324 71.1077 21.0447 71.8321 20.4694C72.5566 19.8942 73.0928 19.1378 73.4408 18.2003C73.7888 17.2628 73.9628 16.2471 73.9628 15.1534C73.9628 14.0596 73.7888 13.0405 73.4408 12.0959C73.0928 11.1513 72.5566 10.3878 71.8321 9.80538C71.1077 9.22299 70.1844 8.9318 69.0622 8.9318C67.9401 8.9318 67.0168 9.22299 66.2923 9.80538C65.5679 10.3878 65.0317 11.1513 64.6837 12.0959C64.3357 13.0405 64.1617 14.0596 64.1617 15.1534C64.1617 16.2471 64.3357 17.2628 64.6837 18.2003C65.0317 19.1378 65.5679 19.8942 66.2923 20.4694C67.0168 21.0447 67.9401 21.3324 69.0622 21.3324Z" fill="black"/>
<path d="M44.1333 29.3863V6.88635H46.5623V9.48578H46.8606C47.0452 9.20169 47.3009 8.83947 47.6276 8.39913C47.9614 7.95169 48.4373 7.55396 49.0552 7.20595C49.6802 6.85084 50.5253 6.67328 51.5907 6.67328C52.9685 6.67328 54.183 7.01774 55.2342 7.70666C56.2853 8.39558 57.1056 9.37214 57.6951 10.6363C58.2846 11.9006 58.5793 13.392 58.5793 15.1108C58.5793 16.8437 58.2846 18.3459 57.6951 19.6172C57.1056 20.8814 56.2888 21.8615 55.2448 22.5575C54.2008 23.2464 52.9969 23.5909 51.6333 23.5909C50.5822 23.5909 49.7405 23.4169 49.1084 23.0689C48.4763 22.7138 47.9898 22.3125 47.6489 21.865C47.308 21.4105 47.0452 21.0341 46.8606 20.7358H46.6475V29.3863H44.1333ZM46.6049 15.0682C46.6049 16.304 46.786 17.3942 47.1482 18.3388C47.5104 19.2763 48.0396 20.0113 48.7356 20.544C49.4316 21.0696 50.2839 21.3324 51.2924 21.3324C52.3435 21.3324 53.2207 21.0554 53.9238 20.5014C54.634 19.9403 55.1667 19.1875 55.5218 18.2429C55.884 17.2912 56.0651 16.2329 56.0651 15.0682C56.0651 13.9176 55.8876 12.8807 55.5324 11.9574C55.1844 11.027 54.6553 10.2919 53.9451 9.75211C53.242 9.20524 52.3577 8.9318 51.2924 8.9318C50.2697 8.9318 49.4103 9.19103 48.7143 9.7095C48.0182 10.2209 47.4927 10.9382 47.1376 11.8615C46.7824 12.7777 46.6049 13.8466 46.6049 15.0682Z" fill="black"/>
<path d="M18.0591 23.25V6.88635H20.4881V9.44316H20.7011C21.042 8.56959 21.5925 7.89132 22.3524 7.40836C23.1123 6.91831 24.025 6.67328 25.0903 6.67328C26.1699 6.67328 27.0683 6.91831 27.7856 7.40836C28.5101 7.89132 29.0747 8.56959 29.4795 9.44316H29.65C30.069 8.59799 30.6976 7.92683 31.5356 7.42967C32.3737 6.92541 33.3787 6.67328 34.5506 6.67328C36.0136 6.67328 37.2104 7.13137 38.1408 8.04757C39.0712 8.95666 39.5364 10.3736 39.5364 12.2983V23.25H37.0222V12.2983C37.0222 11.0909 36.6919 10.228 36.0314 9.7095C35.3709 9.19103 34.5932 8.9318 33.6983 8.9318C32.5477 8.9318 31.6564 9.27981 31.0243 9.97583C30.3922 10.6648 30.0761 11.5383 30.0761 12.5966V23.25H27.5193V12.0426C27.5193 11.1122 27.2175 10.3629 26.6138 9.79473C26.0101 9.21944 25.2324 8.9318 24.2807 8.9318C23.6273 8.9318 23.0165 9.10581 22.4483 9.45382C21.8872 9.80183 21.4327 10.2848 21.0847 10.9027C20.7437 11.5135 20.5733 12.2202 20.5733 13.0227V23.25H18.0591Z" fill="black"/>
<path d="M0.470215 23.25V1.43182H13.6378V3.77557H3.11226V11.1477H12.956V13.4915H3.11226V20.9063H13.8083V23.25H0.470215Z" fill="black"/>
</svg>
