<svg width="77" height="21" viewBox="0 0 77 21" fill="none" xmlns="http://www.w3.org/2000/svg">
<path d="M64.9512 20V0.363647H76.802V2.47302H67.329V9.10797H76.1884V11.2173H67.329V17.8906H76.9554V20H64.9512Z" fill="black"/>
<path d="M40.9307 0.363647H43.7687L50.442 16.6634H50.6721L57.3454 0.363647H60.1835V20H57.9591V5.08098H57.7673L51.6309 20H49.4832L43.3469 5.08098H43.1551V20H40.9307V0.363647Z" fill="black"/>
<path d="M36.9324 10.1819C36.9324 12.2529 36.5585 14.0427 35.8106 15.5512C35.0627 17.0597 34.0368 18.2231 32.7328 19.0412C31.4288 19.8594 29.9395 20.2685 28.2648 20.2685C26.5901 20.2685 25.1007 19.8594 23.7967 19.0412C22.4928 18.2231 21.4668 17.0597 20.719 15.5512C19.9711 14.0427 19.5972 12.2529 19.5972 10.1819C19.5972 8.11084 19.9711 6.32107 20.719 4.81255C21.4668 3.30402 22.4928 2.14067 23.7967 1.32249C25.1007 0.504306 26.5901 0.0952148 28.2648 0.0952148C29.9395 0.0952148 31.4288 0.504306 32.7328 1.32249C34.0368 2.14067 35.0627 3.30402 35.8106 4.81255C36.5585 6.32107 36.9324 8.11084 36.9324 10.1819ZM34.6313 10.1819C34.6313 8.48158 34.3468 7.04657 33.7779 5.87682C33.2154 4.70708 32.4516 3.82178 31.4864 3.22093C30.5276 2.62007 29.4537 2.31965 28.2648 2.31965C27.0759 2.31965 25.9988 2.62007 25.0336 3.22093C24.0748 3.82178 23.3109 4.70708 22.7421 5.87682C22.1796 7.04657 21.8983 8.48158 21.8983 10.1819C21.8983 11.8821 22.1796 13.3172 22.7421 14.4869C23.3109 15.6567 24.0748 16.5419 25.0336 17.1428C25.9988 17.7437 27.0759 18.0441 28.2648 18.0441C29.4537 18.0441 30.5276 17.7437 31.4864 17.1428C32.4516 16.5419 33.2154 15.6567 33.7779 14.4869C34.3468 13.3172 34.6313 11.8821 34.6313 10.1819Z" fill="black"/>
<path d="M0.37793 20V0.363647H2.75577V9.10797H13.2259V0.363647H15.6038V20H13.2259V11.2173H2.75577V20H0.37793Z" fill="black"/>
</svg>
