<svg width="79" height="21" viewBox="0 0 79 21" fill="none" xmlns="http://www.w3.org/2000/svg">
<path d="M78.149 0.363647V20H75.8479L65.1476 4.5824H64.9558V20H62.578V0.363647H64.8791L75.6178 15.8196H75.8095V0.363647H78.149Z" fill="black"/>
<path d="M57.8103 0.363647V20H55.4325V0.363647H57.8103Z" fill="black"/>
<path d="M48.7904 6.50005C48.5795 5.85445 48.3014 5.27597 47.9563 4.76461C47.6175 4.24685 47.2116 3.8058 46.7386 3.44145C46.272 3.0771 45.7414 2.79905 45.147 2.60729C44.5525 2.41553 43.9005 2.31965 43.191 2.31965C42.0277 2.31965 40.9698 2.62007 40.0174 3.22093C39.0649 3.82178 38.3075 4.70708 37.745 5.87682C37.1825 7.04657 36.9012 8.48158 36.9012 10.1819C36.9012 11.8821 37.1857 13.3172 37.7546 14.4869C38.3235 15.6567 39.0937 16.5419 40.0653 17.1428C41.0369 17.7437 42.1299 18.0441 43.3444 18.0441C44.4694 18.0441 45.4602 17.8044 46.3167 17.325C47.1796 16.8392 47.8508 16.1552 48.3302 15.2731C48.816 14.3846 49.0589 13.3395 49.0589 12.1378L49.7876 12.2912H43.8813V10.1819H51.36V12.2912C51.36 13.9084 51.0149 15.3147 50.3245 16.51C49.6406 17.7053 48.6946 18.6321 47.4865 19.2905C46.2848 19.9425 44.9041 20.2685 43.3444 20.2685C41.6058 20.2685 40.0781 19.8594 38.7613 19.0412C37.451 18.2231 36.4282 17.0597 35.6931 15.5512C34.9644 14.0427 34.6001 12.2529 34.6001 10.1819C34.6001 8.6286 34.8078 7.23193 35.2233 5.99188C35.6452 4.74543 36.2397 3.68435 37.0067 2.80864C37.7738 1.93293 38.6814 1.26176 39.7297 0.795145C40.778 0.328525 41.9318 0.0952148 43.191 0.0952148C44.2265 0.0952148 45.1917 0.25182 46.0866 0.56503C46.9879 0.871848 47.7901 1.3097 48.4932 1.8786C49.2027 2.4411 49.794 3.11546 50.267 3.90168C50.74 4.68151 51.066 5.54763 51.245 6.50005H48.7904Z" fill="black"/>
<path d="M31.3689 10.1819C31.3689 12.2529 30.995 14.0427 30.2471 15.5512C29.4992 17.0597 28.4733 18.2231 27.1693 19.0412C25.8654 19.8594 24.376 20.2685 22.7013 20.2685C21.0266 20.2685 19.5372 19.8594 18.2333 19.0412C16.9293 18.2231 15.9034 17.0597 15.1555 15.5512C14.4076 14.0427 14.0337 12.2529 14.0337 10.1819C14.0337 8.11084 14.4076 6.32107 15.1555 4.81255C15.9034 3.30402 16.9293 2.14067 18.2333 1.32249C19.5372 0.504306 21.0266 0.0952148 22.7013 0.0952148C24.376 0.0952148 25.8654 0.504306 27.1693 1.32249C28.4733 2.14067 29.4992 3.30402 30.2471 4.81255C30.995 6.32107 31.3689 8.11084 31.3689 10.1819ZM29.0678 10.1819C29.0678 8.48158 28.7833 7.04657 28.2144 5.87682C27.6519 4.70708 26.8881 3.82178 25.9229 3.22093C24.9641 2.62007 23.8902 2.31965 22.7013 2.31965C21.5124 2.31965 20.4353 2.62007 19.4701 3.22093C18.5113 3.82178 17.7475 4.70708 17.1786 5.87682C16.6161 7.04657 16.3348 8.48158 16.3348 10.1819C16.3348 11.8821 16.6161 13.3172 17.1786 14.4869C17.7475 15.6567 18.5113 16.5419 19.4701 17.1428C20.4353 17.7437 21.5124 18.0441 22.7013 18.0441C23.8902 18.0441 24.9641 17.7437 25.9229 17.1428C26.8881 16.5419 27.6519 15.6567 28.2144 14.4869C28.7833 13.3172 29.0678 11.8821 29.0678 10.1819Z" fill="black"/>
<path d="M0.377808 20V0.363647H2.75565V17.8906H11.8835V20H0.377808Z" fill="black"/>
</svg>
