<svg width="206" height="21" viewBox="0 0 206 21" fill="none" xmlns="http://www.w3.org/2000/svg">
<path d="M202.962 5.27277C202.847 4.30118 202.381 3.54692 201.562 3.00999C200.744 2.47306 199.741 2.20459 198.552 2.20459C197.682 2.20459 196.922 2.34522 196.27 2.62647C195.624 2.90772 195.119 3.29443 194.755 3.78662C194.397 4.27881 194.218 4.83811 194.218 5.46453C194.218 5.98868 194.343 6.43932 194.592 6.81645C194.848 7.18719 195.174 7.4972 195.57 7.74649C195.966 7.98939 196.382 8.19074 196.816 8.35054C197.251 8.50395 197.65 8.6286 198.015 8.72448L200.009 9.26141C200.521 9.39564 201.089 9.58101 201.716 9.81752C202.349 10.054 202.953 10.3768 203.528 10.7859C204.11 11.1886 204.589 11.7064 204.966 12.3392C205.343 12.972 205.532 13.7486 205.532 14.6691C205.532 15.7302 205.254 16.689 204.698 17.5455C204.148 18.402 203.343 19.0828 202.282 19.5878C201.227 20.0927 199.945 20.3452 198.437 20.3452C197.03 20.3452 195.813 20.1183 194.784 19.6645C193.761 19.2106 192.956 18.5778 192.367 17.766C191.786 16.9542 191.457 16.0114 191.38 14.9375H193.834C193.898 15.679 194.148 16.2927 194.582 16.7785C195.023 17.2579 195.579 17.6158 196.251 17.8523C196.928 18.0824 197.657 18.1975 198.437 18.1975C199.344 18.1975 200.159 18.0505 200.882 17.7564C201.604 17.456 202.176 17.0405 202.598 16.51C203.02 15.9731 203.231 15.3466 203.231 14.6307C203.231 13.9787 203.049 13.4482 202.684 13.0391C202.32 12.63 201.84 12.2976 201.246 12.042C200.652 11.7863 200.009 11.5625 199.319 11.3708L196.903 10.6804C195.369 10.2394 194.154 9.60978 193.259 8.79159C192.364 7.97341 191.917 6.90274 191.917 5.57959C191.917 4.48016 192.214 3.52135 192.809 2.70317C193.409 1.8786 194.215 1.23939 195.225 0.785556C196.241 0.325329 197.376 0.0952148 198.628 0.0952148C199.894 0.0952148 201.019 0.322132 202.003 0.775968C202.988 1.22341 203.768 1.83705 204.343 2.61688C204.925 3.39671 205.231 4.28201 205.263 5.27277H202.962Z" fill="black"/>
<path d="M175.085 20V0.363647H181.72C183.26 0.363647 184.52 0.641701 185.498 1.19781C186.482 1.74753 187.211 2.4922 187.684 3.43183C188.157 4.37146 188.393 5.41975 188.393 6.57672C188.393 7.73368 188.157 8.78517 187.684 9.73119C187.217 10.6772 186.495 11.4315 185.517 11.994C184.539 12.5501 183.286 12.8281 181.758 12.8281H177.003V10.7188H181.682C182.736 10.7188 183.583 10.5366 184.222 10.1722C184.862 9.80789 185.325 9.31571 185.613 8.69568C185.907 8.06926 186.054 7.36294 186.054 6.57672C186.054 5.79049 185.907 5.08737 185.613 4.46734C185.325 3.84731 184.858 3.36152 184.213 3.00995C183.567 2.652 182.711 2.47302 181.643 2.47302H177.463V20H175.085Z" fill="black"/>
<path d="M170.317 0.363647V20H167.939V0.363647H170.317Z" fill="black"/>
<path d="M147.953 20V0.363647H150.331V9.10797H160.801V0.363647H163.179V20H160.801V11.2173H150.331V20H147.953Z" fill="black"/>
<path d="M141.474 5.27277C141.359 4.30118 140.892 3.54692 140.074 3.00999C139.256 2.47306 138.252 2.20459 137.063 2.20459C136.194 2.20459 135.434 2.34522 134.782 2.62647C134.136 2.90772 133.631 3.29443 133.267 3.78662C132.909 4.27881 132.73 4.83811 132.73 5.46453C132.73 5.98868 132.854 6.43932 133.104 6.81645C133.359 7.18719 133.685 7.4972 134.082 7.74649C134.478 7.98939 134.893 8.19074 135.328 8.35054C135.763 8.50395 136.162 8.6286 136.527 8.72448L138.521 9.26141C139.032 9.39564 139.601 9.58101 140.228 9.81752C140.86 10.054 141.464 10.3768 142.04 10.7859C142.621 11.1886 143.101 11.7064 143.478 12.3392C143.855 12.972 144.044 13.7486 144.044 14.6691C144.044 15.7302 143.766 16.689 143.209 17.5455C142.66 18.402 141.854 19.0828 140.793 19.5878C139.739 20.0927 138.457 20.3452 136.948 20.3452C135.542 20.3452 134.324 20.1183 133.295 19.6645C132.273 19.2106 131.467 18.5778 130.879 17.766C130.298 16.9542 129.968 16.0114 129.892 14.9375H132.346C132.41 15.679 132.659 16.2927 133.094 16.7785C133.535 17.2579 134.091 17.6158 134.762 17.8523C135.44 18.0824 136.169 18.1975 136.948 18.1975C137.856 18.1975 138.671 18.0505 139.393 17.7564C140.116 17.456 140.688 17.0405 141.11 16.51C141.532 15.9731 141.742 15.3466 141.742 14.6307C141.742 13.9787 141.56 13.4482 141.196 13.0391C140.832 12.63 140.352 12.2976 139.758 12.042C139.163 11.7863 138.521 11.5625 137.831 11.3708L135.414 10.6804C133.88 10.2394 132.666 9.60978 131.771 8.79159C130.876 7.97341 130.429 6.90274 130.429 5.57959C130.429 4.48016 130.726 3.52135 131.32 2.70317C131.921 1.8786 132.726 1.23939 133.736 0.785556C134.753 0.325329 135.887 0.0952148 137.14 0.0952148C138.406 0.0952148 139.531 0.322132 140.515 0.775968C141.5 1.22341 142.279 1.83705 142.855 2.61688C143.436 3.39671 143.743 4.28201 143.775 5.27277H141.474Z" fill="black"/>
<path d="M113.465 20V0.363647H120.1C121.634 0.363647 122.893 0.625721 123.877 1.14987C124.862 1.66762 125.591 2.38034 126.064 3.28801C126.537 4.19568 126.773 5.22799 126.773 6.38495C126.773 7.54191 126.537 8.56784 126.064 9.46272C125.591 10.3576 124.865 11.0607 123.887 11.5721C122.909 12.0771 121.659 12.3296 120.138 12.3296H114.769V10.1818H120.061C121.11 10.1818 121.953 10.0284 122.593 9.7216C123.238 9.41478 123.705 8.98012 123.993 8.41762C124.287 7.84873 124.434 7.17118 124.434 6.38495C124.434 5.59873 124.287 4.91159 123.993 4.32352C123.699 3.73545 123.229 3.28162 122.583 2.96201C121.938 2.63602 121.084 2.47302 120.023 2.47302H115.843V20H113.465ZM122.708 11.179L127.54 20H124.779L120.023 11.179H122.708Z" fill="black"/>
<path d="M96.0241 20H93.5312L100.741 0.363647H103.196L110.406 20H107.913L102.045 3.47018H101.892L96.0241 20ZM96.9446 12.3296H106.993V14.4389H96.9446V12.3296Z" fill="black"/>
<path d="M78.792 20V0.363647H81.1698V17.8906H90.2977V20H78.792Z" fill="black"/>
<path d="M74.7937 10.1819C74.7937 12.2529 74.4198 14.0427 73.6719 15.5512C72.9241 17.0597 71.8981 18.2231 70.5942 19.0412C69.2902 19.8594 67.8008 20.2685 66.1261 20.2685C64.4514 20.2685 62.9621 19.8594 61.6581 19.0412C60.3541 18.2231 59.3282 17.0597 58.5803 15.5512C57.8324 14.0427 57.4585 12.2529 57.4585 10.1819C57.4585 8.11084 57.8324 6.32107 58.5803 4.81255C59.3282 3.30402 60.3541 2.14067 61.6581 1.32249C62.9621 0.504306 64.4514 0.0952148 66.1261 0.0952148C67.8008 0.0952148 69.2902 0.504306 70.5942 1.32249C71.8981 2.14067 72.9241 3.30402 73.6719 4.81255C74.4198 6.32107 74.7937 8.11084 74.7937 10.1819ZM72.4926 10.1819C72.4926 8.48158 72.2081 7.04657 71.6393 5.87682C71.0768 4.70708 70.3129 3.82178 69.3477 3.22093C68.3889 2.62007 67.315 2.31965 66.1261 2.31965C64.9372 2.31965 63.8601 2.62007 62.8949 3.22093C61.9361 3.82178 61.1723 4.70708 60.6034 5.87682C60.0409 7.04657 59.7596 8.48158 59.7596 10.1819C59.7596 11.8821 60.0409 13.3172 60.6034 14.4869C61.1723 15.6567 61.9361 16.5419 62.8949 17.1428C63.8601 17.7437 64.9372 18.0441 66.1261 18.0441C67.315 18.0441 68.3889 17.7437 69.3477 17.1428C70.3129 16.5419 71.0768 15.6567 71.6393 14.4869C72.2081 13.3172 72.4926 11.8821 72.4926 10.1819Z" fill="black"/>
<path d="M38.2393 20V0.363647H40.6171V9.10797H51.0873V0.363647H53.4651V20H51.0873V11.2173H40.6171V20H38.2393Z" fill="black"/>
<path d="M34.3968 6.50005H32.019C31.8783 5.8161 31.6322 5.21524 31.2807 4.69749C30.9355 4.17973 30.5136 3.74507 30.015 3.39351C29.5229 3.03556 28.9763 2.76709 28.3755 2.58811C27.7746 2.40914 27.1482 2.31965 26.4962 2.31965C25.3073 2.31965 24.2302 2.62007 23.265 3.22093C22.3062 3.82178 21.5424 4.70708 20.9735 5.87682C20.411 7.04657 20.1297 8.48158 20.1297 10.1819C20.1297 11.8821 20.411 13.3172 20.9735 14.4869C21.5424 15.6567 22.3062 16.5419 23.265 17.1428C24.2302 17.7437 25.3073 18.0441 26.4962 18.0441C27.1482 18.0441 27.7746 17.9546 28.3755 17.7756C28.9763 17.5966 29.5229 17.3314 30.015 16.9798C30.5136 16.6219 30.9355 16.184 31.2807 15.6662C31.6322 15.1421 31.8783 14.5412 32.019 13.8637H34.3968C34.2178 14.8672 33.8918 15.7653 33.4188 16.5579C32.9458 17.3505 32.3577 18.0249 31.6546 18.581C30.9515 19.1307 30.1621 19.5494 29.2864 19.837C28.417 20.1247 27.487 20.2685 26.4962 20.2685C24.8215 20.2685 23.3322 19.8594 22.0282 19.0412C20.7242 18.2231 19.6983 17.0597 18.9504 15.5512C18.2025 14.0427 17.8286 12.2529 17.8286 10.1819C17.8286 8.11084 18.2025 6.32107 18.9504 4.81255C19.6983 3.30402 20.7242 2.14067 22.0282 1.32249C23.3322 0.504306 24.8215 0.0952148 26.4962 0.0952148C27.487 0.0952148 28.417 0.239036 29.2864 0.526679C30.1621 0.814321 30.9515 1.2362 31.6546 1.7923C32.3577 2.34202 32.9458 3.01318 33.4188 3.8058C33.8918 4.59202 34.2178 5.4901 34.3968 6.50005Z" fill="black"/>
<path d="M12.1166 5.27277C12.0015 4.30118 11.5349 3.54692 10.7167 3.00999C9.89853 2.47306 8.89498 2.20459 7.70605 2.20459C6.83674 2.20459 6.07608 2.34522 5.42409 2.62647C4.7785 2.90772 4.27353 3.29443 3.90918 3.78662C3.55123 4.27881 3.37225 4.83811 3.37225 5.46453C3.37225 5.98868 3.49689 6.43932 3.74618 6.81645C4.00186 7.18719 4.32786 7.4972 4.72417 7.74649C5.12047 7.98939 5.53596 8.19074 5.97061 8.35054C6.40527 8.50395 6.80478 8.6286 7.16912 8.72448L9.16344 9.26141C9.67481 9.39564 10.2437 9.58101 10.8701 9.81752C11.5029 10.054 12.107 10.3768 12.6823 10.7859C13.2639 11.1886 13.7433 11.7064 14.1205 12.3392C14.4976 12.972 14.6862 13.7486 14.6862 14.6691C14.6862 15.7302 14.4081 16.689 13.852 17.5455C13.3023 18.402 12.4969 19.0828 11.4358 19.5878C10.3811 20.0927 9.09952 20.3452 7.591 20.3452C6.18475 20.3452 4.96706 20.1183 3.93794 19.6645C2.91522 19.2106 2.10982 18.5778 1.52175 17.766C0.940075 16.9542 0.610884 16.0114 0.53418 14.9375H2.98873C3.05265 15.679 3.30194 16.2927 3.73659 16.7785C4.17765 17.2579 4.73375 17.6158 5.40492 17.8523C6.08248 18.0824 6.81117 18.1975 7.591 18.1975C8.49867 18.1975 9.31365 18.0505 10.036 17.7564C10.7583 17.456 11.3303 17.0405 11.7522 16.51C12.1741 15.9731 12.385 15.3466 12.385 14.6307C12.385 13.9787 12.2029 13.4482 11.8385 13.0391C11.4742 12.63 10.9948 12.2976 10.4003 12.042C9.80584 11.7863 9.16344 11.5625 8.4731 11.3708L6.05691 10.6804C4.52282 10.2394 3.30833 9.60978 2.41344 8.79159C1.51855 7.97341 1.07111 6.90274 1.07111 5.57959C1.07111 4.48016 1.36834 3.52135 1.9628 2.70317C2.56365 1.8786 3.36905 1.23939 4.37899 0.785556C5.39533 0.325329 6.52992 0.0952148 7.78276 0.0952148C9.04838 0.0952148 10.1734 0.322132 11.1578 0.775968C12.1421 1.22341 12.922 1.83705 13.4972 2.61688C14.0789 3.39671 14.3857 4.28201 14.4177 5.27277H12.1166Z" fill="black"/>
</svg>
