<svg width="322" height="91" viewBox="0 0 322 91" fill="none" xmlns="http://www.w3.org/2000/svg">
<path d="M0 31.7368C0 24.2458 5.51234 17.9134 12.9427 16.9623C71.0535 9.52442 305.491 -18.1135 316 18.6667C323.906 46.339 321.394 68.802 318.76 80.9076C317.456 86.9009 311.978 90.6666 305.845 90.6666H15C6.71573 90.6666 0 83.9509 0 75.6666V31.7368Z" fill="#6C61EA"/>
<path fill-rule="evenodd" clip-rule="evenodd" d="M182.37 2.23157C115.224 5.4713 42.1188 14.2361 13.0697 17.9542C6.14419 18.8407 1 24.7431 1 31.7368V75.6666C1 83.3986 7.26802 89.6666 15 89.6666H305.845C311.586 89.6666 316.595 86.1567 317.783 80.695C320.391 68.7093 322.889 46.4188 315.038 18.9414C313.867 14.8396 309.48 11.3988 302.001 8.66776C294.587 5.96009 284.436 4.062 272.285 2.83271C247.996 0.375421 215.95 0.611379 182.37 2.23157ZM12.9427 16.9623C5.51234 17.9134 0 24.2458 0 31.7368V75.6666C0 83.9509 6.71573 90.6666 15 90.6666H305.845C311.978 90.6666 317.456 86.9009 318.76 80.9076C321.394 68.802 323.906 46.339 316 18.6667C305.491 -18.1135 71.0535 9.52442 12.9427 16.9623Z" fill="black"/>
<path d="M297.405 60.6669L295.764 59.0476L302.518 52.2933H285.025V49.9496H302.518L295.764 43.2166L297.405 41.576L306.95 51.1214L297.405 60.6669Z" fill="white"/>
<path d="M271.056 47.968L268.798 48.6072C268.656 48.2308 268.446 47.865 268.169 47.5099C267.899 47.1477 267.53 46.8494 267.061 46.615C266.592 46.3806 265.992 46.2634 265.261 46.2634C264.259 46.2634 263.425 46.4943 262.757 46.9559C262.097 47.4105 261.766 47.9893 261.766 48.6924C261.766 49.3174 261.994 49.811 262.448 50.1732C262.903 50.5355 263.613 50.8373 264.579 51.0788L267.008 51.6754C268.471 52.0305 269.561 52.5738 270.278 53.3053C270.996 54.0298 271.354 54.9637 271.354 56.1072C271.354 57.0447 271.084 57.8828 270.545 58.6214C270.012 59.36 269.266 59.9424 268.307 60.3686C267.349 60.7947 266.234 61.0078 264.962 61.0078C263.293 61.0078 261.912 60.6455 260.818 59.9211C259.724 59.1967 259.032 58.1384 258.741 56.7464L261.127 56.1498C261.354 57.0305 261.784 57.691 262.416 58.1313C263.055 58.5717 263.89 58.7919 264.92 58.7919C266.092 58.7919 267.022 58.5433 267.711 58.0461C268.407 57.5419 268.755 56.9382 268.755 56.235C268.755 55.6669 268.556 55.191 268.158 54.8075C267.761 54.4169 267.15 54.1257 266.326 53.9339L263.599 53.2947C262.1 52.9396 260.999 52.3892 260.296 51.6434C259.6 50.8906 259.252 49.9495 259.252 48.8203C259.252 47.897 259.511 47.0802 260.03 46.37C260.555 45.6598 261.269 45.1022 262.171 44.6974C263.08 44.2926 264.11 44.0901 265.261 44.0901C266.88 44.0901 268.151 44.4453 269.075 45.1555C270.005 45.8657 270.665 46.8032 271.056 47.968Z" fill="white"/>
<path d="M241.184 66.8032V44.3032H243.613V46.9026H243.911C244.096 46.6186 244.352 46.2563 244.678 45.816C245.012 45.3686 245.488 44.9708 246.106 44.6228C246.731 44.2677 247.576 44.0901 248.641 44.0901C250.019 44.0901 251.234 44.4346 252.285 45.1235C253.336 45.8124 254.156 46.789 254.746 48.0532C255.335 49.3174 255.63 50.8089 255.63 52.5276C255.63 54.2606 255.335 55.7627 254.746 57.034C254.156 58.2982 253.34 59.2784 252.296 59.9744C251.252 60.6633 250.048 61.0078 248.684 61.0078C247.633 61.0078 246.791 60.8338 246.159 60.4857C245.527 60.1306 245.041 59.7294 244.7 59.2819C244.359 58.8274 244.096 58.4509 243.911 58.1526H243.698V66.8032H241.184ZM243.656 52.485C243.656 53.7208 243.837 54.811 244.199 55.7556C244.561 56.6931 245.09 57.4282 245.786 57.9609C246.482 58.4865 247.335 58.7492 248.343 58.7492C249.394 58.7492 250.271 58.4723 250.975 57.9183C251.685 57.3572 252.217 56.6044 252.573 55.6597C252.935 54.708 253.116 53.6498 253.116 52.485C253.116 51.3345 252.938 50.2975 252.583 49.3742C252.235 48.4438 251.706 47.7088 250.996 47.169C250.293 46.6221 249.409 46.3487 248.343 46.3487C247.32 46.3487 246.461 46.6079 245.765 47.1264C245.069 47.6377 244.543 48.3551 244.188 49.2784C243.833 50.1946 243.656 51.2634 243.656 52.485Z" fill="white"/>
<path d="M234.065 60.6669V44.3032H236.579V60.6669H234.065ZM235.343 41.576C234.853 41.576 234.431 41.4091 234.075 41.0753C233.727 40.7414 233.553 40.3402 233.553 39.8714C233.553 39.4027 233.727 39.0014 234.075 38.6676C234.431 38.3338 234.853 38.1669 235.343 38.1669C235.833 38.1669 236.252 38.3338 236.6 38.6676C236.955 39.0014 237.133 39.4027 237.133 39.8714C237.133 40.3402 236.955 40.7414 236.6 41.0753C236.252 41.4091 235.833 41.576 235.343 41.576Z" fill="white"/>
<path d="M218.855 50.8231V60.6669H216.34V38.8487H218.855V46.8601H219.068C219.451 46.0149 220.026 45.3437 220.793 44.8466C221.568 44.3423 222.597 44.0902 223.883 44.0902C224.998 44.0902 225.975 44.3139 226.813 44.7613C227.651 45.2017 228.301 45.8799 228.762 46.7961C229.231 47.7052 229.465 48.8629 229.465 50.2691V60.6669H226.951V50.4396C226.951 49.1399 226.614 48.1349 225.939 47.4247C225.271 46.7074 224.345 46.3487 223.159 46.3487C222.335 46.3487 221.596 46.5227 220.943 46.8707C220.296 47.2187 219.785 47.7265 219.409 48.3941C219.039 49.0618 218.855 49.8714 218.855 50.8231Z" fill="white"/>
<path d="M212.257 47.968L209.999 48.6072C209.857 48.2308 209.647 47.865 209.37 47.5099C209.1 47.1477 208.731 46.8494 208.262 46.615C207.793 46.3806 207.193 46.2634 206.462 46.2634C205.46 46.2634 204.626 46.4943 203.958 46.9559C203.298 47.4105 202.967 47.9893 202.967 48.6924C202.967 49.3174 203.195 49.811 203.649 50.1732C204.104 50.5355 204.814 50.8373 205.78 51.0788L208.209 51.6754C209.672 52.0305 210.762 52.5738 211.48 53.3053C212.197 54.0298 212.556 54.9637 212.556 56.1072C212.556 57.0447 212.286 57.8828 211.746 58.6214C211.213 59.36 210.467 59.9424 209.509 60.3686C208.55 60.7947 207.435 61.0078 206.163 61.0078C204.494 61.0078 203.113 60.6455 202.019 59.9211C200.926 59.1967 200.233 58.1384 199.942 56.7464L202.328 56.1498C202.556 57.0305 202.985 57.691 203.617 58.1313C204.257 58.5717 205.091 58.7919 206.121 58.7919C207.293 58.7919 208.223 58.5433 208.912 58.0461C209.608 57.5419 209.956 56.9382 209.956 56.235C209.956 55.6669 209.757 55.191 209.36 54.8075C208.962 54.4169 208.351 54.1257 207.527 53.9339L204.8 53.2947C203.301 52.9396 202.2 52.3892 201.497 51.6434C200.801 50.8906 200.453 49.9495 200.453 48.8203C200.453 47.897 200.712 47.0802 201.231 46.37C201.757 45.6598 202.47 45.1022 203.372 44.6974C204.281 44.2926 205.311 44.0901 206.462 44.0901C208.081 44.0901 209.352 44.4453 210.276 45.1555C211.206 45.8657 211.867 46.8032 212.257 47.968Z" fill="white"/>
<path d="M189.504 60.6669V44.3032H191.933V46.7748H192.104C192.402 45.9652 192.942 45.3082 193.723 44.8039C194.504 44.2997 195.385 44.0475 196.365 44.0475C196.55 44.0475 196.781 44.0511 197.058 44.0582C197.335 44.0653 197.544 44.076 197.686 44.0902V46.647C197.601 46.6257 197.406 46.5937 197.1 46.5511C196.802 46.5014 196.486 46.4765 196.152 46.4765C195.357 46.4765 194.646 46.6434 194.021 46.9772C193.404 47.3039 192.913 47.7585 192.551 48.3409C192.196 48.9162 192.019 49.5731 192.019 50.3118V60.6669H189.504Z" fill="white"/>
<path d="M177.415 61.0504C176.378 61.0504 175.437 60.8551 174.592 60.4644C173.747 60.0667 173.076 59.495 172.579 58.7492C172.082 57.9964 171.833 57.0873 171.833 56.022C171.833 55.0845 172.018 54.3245 172.387 53.7421C172.756 53.1526 173.25 52.691 173.868 52.3572C174.486 52.0234 175.168 51.7748 175.913 51.6115C176.666 51.441 177.423 51.3061 178.182 51.2066C179.177 51.0788 179.983 50.9829 180.601 50.919C181.226 50.848 181.68 50.7308 181.964 50.5674C182.256 50.4041 182.401 50.12 182.401 49.7151V49.6299C182.401 48.5788 182.114 47.762 181.538 47.1796C180.97 46.5973 180.107 46.3061 178.949 46.3061C177.749 46.3061 176.808 46.5688 176.126 47.0944C175.445 47.62 174.965 48.1811 174.688 48.7776L172.302 47.9254C172.728 46.9311 173.296 46.1569 174.006 45.6029C174.724 45.0419 175.505 44.6512 176.35 44.4311C177.202 44.2038 178.04 44.0901 178.864 44.0901C179.39 44.0901 179.994 44.1541 180.675 44.2819C181.364 44.4026 182.028 44.6548 182.668 45.0383C183.314 45.4218 183.85 46.0007 184.276 46.7748C184.702 47.549 184.915 48.5859 184.915 49.8856V60.6669H182.401V58.4509H182.273C182.103 58.8061 181.819 59.186 181.421 59.5909C181.023 59.9957 180.494 60.3401 179.834 60.6242C179.173 60.9083 178.367 61.0504 177.415 61.0504ZM177.799 58.7919C178.793 58.7919 179.631 58.5965 180.313 58.2059C181.002 57.8153 181.521 57.311 181.869 56.6931C182.224 56.0752 182.401 55.4254 182.401 54.7436V52.4424C182.295 52.5703 182.06 52.6874 181.698 52.794C181.343 52.8934 180.931 52.9822 180.462 53.0603C180.001 53.1313 179.55 53.1953 179.109 53.2521C178.676 53.3018 178.324 53.3444 178.055 53.3799C177.401 53.4651 176.79 53.6036 176.222 53.7954C175.661 53.9801 175.207 54.2606 174.859 54.637C174.518 55.0063 174.347 55.5106 174.347 56.1498C174.347 57.0234 174.67 57.6839 175.317 58.1313C175.97 58.5717 176.797 58.7919 177.799 58.7919Z" fill="white"/>
<path d="M167.995 38.8487V60.6669H165.481V38.8487H167.995Z" fill="white"/>
<path d="M154.228 61.0078C152.751 61.0078 151.455 60.6562 150.34 59.9531C149.232 59.25 148.365 58.2663 147.74 57.0021C147.122 55.7379 146.813 54.2606 146.813 52.5703C146.813 50.8657 147.122 49.3778 147.74 48.1065C148.365 46.8352 149.232 45.848 150.34 45.1448C151.455 44.4417 152.751 44.0901 154.228 44.0901C155.706 44.0901 156.998 44.4417 158.106 45.1448C159.221 45.848 160.088 46.8352 160.706 48.1065C161.331 49.3778 161.643 50.8657 161.643 52.5703C161.643 54.2606 161.331 55.7379 160.706 57.0021C160.088 58.2663 159.221 59.25 158.106 59.9531C156.998 60.6562 155.706 61.0078 154.228 61.0078ZM154.228 58.7492C155.35 58.7492 156.274 58.4616 156.998 57.8863C157.723 57.311 158.259 56.5546 158.607 55.6171C158.955 54.6796 159.129 53.664 159.129 52.5703C159.129 51.4765 158.955 50.4573 158.607 49.5127C158.259 48.5681 157.723 47.8046 156.998 47.2222C156.274 46.6399 155.35 46.3487 154.228 46.3487C153.106 46.3487 152.183 46.6399 151.458 47.2222C150.734 47.8046 150.198 48.5681 149.85 49.5127C149.502 50.4573 149.328 51.4765 149.328 52.5703C149.328 53.664 149.502 54.6796 149.85 55.6171C150.198 56.5546 150.734 57.311 151.458 57.8863C152.183 58.4616 153.106 58.7492 154.228 58.7492Z" fill="white"/>
<path d="M132.37 50.8231V60.6669H129.856V38.8487H132.37V46.8601H132.583C132.967 46.0149 133.542 45.3437 134.309 44.8466C135.083 44.3423 136.113 44.0902 137.399 44.0902C138.514 44.0902 139.49 44.3139 140.328 44.7613C141.166 45.2017 141.816 45.8799 142.278 46.7961C142.747 47.7052 142.981 48.8629 142.981 50.2691V60.6669H140.467V50.4396C140.467 49.1399 140.129 48.1349 139.455 47.4247C138.787 46.7074 137.86 46.3487 136.674 46.3487C135.85 46.3487 135.112 46.5227 134.458 46.8707C133.812 47.2187 133.301 47.7265 132.924 48.3941C132.555 49.0618 132.37 49.8714 132.37 50.8231Z" fill="white"/>
<path d="M119.746 61.0078C118.212 61.0078 116.891 60.6455 115.783 59.9211C114.675 59.1967 113.823 58.1988 113.226 56.9275C112.629 55.6562 112.331 54.2038 112.331 52.5703C112.331 50.9083 112.636 49.4417 113.247 48.1704C113.865 46.892 114.725 45.8941 115.825 45.1768C116.933 44.4524 118.226 44.0901 119.703 44.0901C120.854 44.0901 121.891 44.3032 122.814 44.7294C123.737 45.1555 124.494 45.7521 125.083 46.5191C125.673 47.2862 126.038 48.1811 126.18 49.2038H123.666C123.475 48.458 123.048 47.7975 122.388 47.2222C121.734 46.6399 120.854 46.3487 119.746 46.3487C118.766 46.3487 117.906 46.6044 117.168 47.1157C116.436 47.62 115.864 48.3338 115.453 49.2571C115.048 50.1732 114.845 51.2492 114.845 52.485C114.845 53.7492 115.044 54.8501 115.442 55.7876C115.847 56.7251 116.415 57.4531 117.146 57.9715C117.885 58.49 118.752 58.7492 119.746 58.7492C120.399 58.7492 120.992 58.6356 121.525 58.4083C122.058 58.1811 122.509 57.8544 122.878 57.4282C123.247 57.0021 123.51 56.4907 123.666 55.8941H126.18C126.038 56.86 125.687 57.7301 125.126 58.5042C124.572 59.2713 123.837 59.8821 122.921 60.3366C122.011 60.784 120.953 61.0078 119.746 61.0078Z" fill="white"/>
<path d="M106.24 44.3033C106.112 43.2237 105.594 42.3856 104.685 41.7891C103.775 41.1925 102.66 40.8942 101.339 40.8942C100.373 40.8942 99.5283 41.0504 98.8038 41.3629C98.0865 41.6754 97.5254 42.1051 97.1206 42.652C96.7229 43.1989 96.524 43.8203 96.524 44.5163C96.524 45.0987 96.6625 45.5994 96.9395 46.0185C97.2236 46.4304 97.5858 46.7748 98.0261 47.0518C98.4665 47.3217 98.9281 47.5454 99.4111 47.723C99.894 47.8935 100.338 48.0319 100.743 48.1385L102.959 48.7351C103.527 48.8842 104.159 49.0902 104.855 49.353C105.558 49.6158 106.229 49.9744 106.868 50.429C107.515 50.8764 108.047 51.4517 108.466 52.1548C108.886 52.8579 109.095 53.7209 109.095 54.7436C109.095 55.9226 108.786 56.9879 108.168 57.9396C107.557 58.8913 106.663 59.6477 105.484 60.2088C104.312 60.7699 102.888 61.0504 101.212 61.0504C99.649 61.0504 98.296 60.7983 97.1526 60.294C96.0162 59.7898 95.1213 59.0866 94.4679 58.1846C93.8216 57.2827 93.4558 56.2351 93.3706 55.0419H96.0979C96.1689 55.8658 96.4459 56.5476 96.9288 57.0873C97.4189 57.62 98.0368 58.0177 98.7825 58.2805C99.5354 58.5362 100.345 58.6641 101.212 58.6641C102.22 58.6641 103.126 58.5007 103.928 58.174C104.731 57.8402 105.366 57.3785 105.835 56.7891C106.304 56.1925 106.538 55.4964 106.538 54.701C106.538 53.9766 106.336 53.3871 105.931 52.9325C105.526 52.478 104.993 52.1087 104.333 51.8246C103.672 51.5405 102.959 51.2919 102.192 51.0788L99.507 50.3118C97.8024 49.8217 96.453 49.1221 95.4587 48.2131C94.4644 47.304 93.9672 46.1143 93.9672 44.6442C93.9672 43.4226 94.2975 42.3572 94.958 41.4481C95.6256 40.5319 96.5205 39.8217 97.6426 39.3175C98.7719 38.8061 100.033 38.5504 101.425 38.5504C102.831 38.5504 104.081 38.8025 105.175 39.3068C106.268 39.804 107.135 40.4858 107.774 41.3523C108.42 42.2187 108.761 43.2024 108.797 44.3033H106.24Z" fill="white"/>
<path d="M64.862 60.6669L59.8762 44.3032H62.5183L66.0552 56.8316H66.2257L69.72 44.3032H72.4046L75.8563 56.789H76.0268L79.5637 44.3032H82.2058L77.22 60.6669H74.7484L71.1688 48.0958H70.9132L67.3336 60.6669H64.862Z" fill="white"/>
<path d="M50.5546 61.0078C48.9779 61.0078 47.6178 60.6598 46.4743 59.9637C45.338 59.2606 44.4608 58.2805 43.843 57.0234C43.2322 55.7592 42.9268 54.289 42.9268 52.6129C42.9268 50.9367 43.2322 49.4595 43.843 48.1811C44.4608 46.8955 45.3202 45.8941 46.4211 45.1768C47.529 44.4524 48.8216 44.0901 50.2989 44.0901C51.1512 44.0901 51.9928 44.2322 52.8238 44.5163C53.6547 44.8004 54.4111 45.262 55.0929 45.9012C55.7748 46.5333 56.3181 47.3714 56.7229 48.4154C57.1278 49.4595 57.3302 50.745 57.3302 52.272V53.3373H44.7165V51.164H54.7733C54.7733 50.2407 54.5887 49.4169 54.2194 48.6924C53.8572 47.968 53.3387 47.3963 52.664 46.9772C51.9964 46.5582 51.208 46.3487 50.2989 46.3487C49.2975 46.3487 48.431 46.5973 47.6995 47.0944C46.9751 47.5845 46.4175 48.2237 46.0269 49.012C45.6363 49.8004 45.441 50.6455 45.441 51.5475V52.9964C45.441 54.2322 45.654 55.2798 46.0802 56.1392C46.5134 56.9914 47.1135 57.6413 47.8806 58.0887C48.6476 58.5291 49.539 58.7492 50.5546 58.7492C51.2151 58.7492 51.8117 58.6569 52.3444 58.4722C52.8841 58.2805 53.3493 57.9964 53.74 57.62C54.1306 57.2365 54.4324 56.7606 54.6455 56.1924L57.0745 56.8742C56.8188 57.6981 56.3891 58.4225 55.7854 59.0475C55.1817 59.6654 54.436 60.1484 53.5482 60.4964C52.6604 60.8373 51.6626 61.0078 50.5546 61.0078Z" fill="white"/>
<path d="M36.5746 60.6669V44.3032H39.0888V60.6669H36.5746ZM37.853 41.576C37.3629 41.576 36.9404 41.4091 36.5853 41.0753C36.2372 40.7414 36.0632 40.3402 36.0632 39.8714C36.0632 39.4027 36.2372 39.0014 36.5853 38.6676C36.9404 38.3338 37.3629 38.1669 37.853 38.1669C38.3431 38.1669 38.7621 38.3338 39.1101 38.6676C39.4652 39.0014 39.6428 39.4027 39.6428 39.8714C39.6428 40.3402 39.4652 40.7414 39.1101 41.0753C38.7621 41.4091 38.3431 41.576 37.853 41.576Z" fill="white"/>
<path d="M17.537 38.8487L24.0142 57.2152H24.2699L30.7472 38.8487H33.5171L25.5057 60.6669H22.7785L14.7671 38.8487H17.537Z" fill="white"/>
</svg>
