<svg width="621" height="53" viewBox="0 0 621 53" fill="none" xmlns="http://www.w3.org/2000/svg">
<path d="M594.189 52.5V11.25H598.643V16.0156H599.189C599.528 15.4948 599.997 14.8307 600.596 14.0234C601.208 13.2031 602.08 12.474 603.213 11.8359C604.359 11.1849 605.908 10.8594 607.861 10.8594C610.387 10.8594 612.614 11.4909 614.541 12.7539C616.468 14.0169 617.972 15.8073 619.053 18.125C620.133 20.4427 620.674 23.1771 620.674 26.3281C620.674 29.5052 620.133 32.2591 619.053 34.5898C617.972 36.9076 616.475 38.7044 614.561 39.9805C612.646 41.2435 610.439 41.875 607.939 41.875C606.012 41.875 604.469 41.556 603.311 40.918C602.152 40.2669 601.26 39.5312 600.635 38.7109C600.01 37.8776 599.528 37.1875 599.189 36.6406H598.799V52.5H594.189ZM598.721 26.25C598.721 28.5156 599.053 30.5143 599.717 32.2461C600.381 33.9648 601.351 35.3125 602.627 36.2891C603.903 37.2526 605.465 37.7344 607.314 37.7344C609.242 37.7344 610.85 37.2266 612.139 36.2109C613.441 35.1823 614.417 33.8021 615.068 32.0703C615.732 30.3255 616.064 28.3854 616.064 26.25C616.064 24.1406 615.739 22.2396 615.088 20.5469C614.45 18.8411 613.48 17.4935 612.178 16.5039C610.889 15.5013 609.268 15 607.314 15C605.439 15 603.864 15.4753 602.588 16.4258C601.312 17.3633 600.348 18.6784 599.697 20.3711C599.046 22.0508 598.721 24.0104 598.721 26.25Z" fill="#6C61EA"/>
<path d="M581.138 41.25V11.25H585.747V41.25H581.138ZM583.481 6.25C582.583 6.25 581.808 5.94401 581.157 5.33203C580.519 4.72005 580.2 3.98438 580.2 3.125C580.2 2.26562 580.519 1.52995 581.157 0.917967C581.808 0.305989 582.583 0 583.481 0C584.38 0 585.148 0.305989 585.786 0.917967C586.437 1.52995 586.763 2.26562 586.763 3.125C586.763 3.98438 586.437 4.72005 585.786 5.33203C585.148 5.94401 584.38 6.25 583.481 6.25Z" fill="#6C61EA"/>
<path d="M553.252 23.2031V41.25H548.643V1.25H553.252V15.9375H553.643C554.346 14.388 555.4 13.1576 556.807 12.2461C558.226 11.3216 560.114 10.8594 562.471 10.8594C564.515 10.8594 566.305 11.2695 567.842 12.0898C569.378 12.8971 570.57 14.1406 571.416 15.8203C572.275 17.487 572.705 19.6094 572.705 22.1875V41.25H568.096V22.5C568.096 20.1172 567.477 18.2747 566.24 16.9727C565.016 15.6576 563.317 15 561.143 15C559.632 15 558.278 15.319 557.08 15.957C555.895 16.5951 554.958 17.526 554.268 18.75C553.59 19.974 553.252 21.4583 553.252 23.2031Z" fill="#6C61EA"/>
<path d="M541.157 17.9688L537.017 19.1406C536.756 18.4505 536.372 17.7799 535.864 17.1289C535.369 16.4648 534.692 15.918 533.833 15.4883C532.974 15.0586 531.873 14.8437 530.532 14.8437C528.696 14.8437 527.166 15.2669 525.942 16.1133C524.731 16.9466 524.126 18.0078 524.126 19.2969C524.126 20.4427 524.543 21.3477 525.376 22.0117C526.209 22.6758 527.511 23.2292 529.282 23.6719L533.735 24.7656C536.418 25.4167 538.416 26.4128 539.731 27.7539C541.047 29.082 541.704 30.7943 541.704 32.8906C541.704 34.6094 541.209 36.1458 540.22 37.5C539.243 38.8542 537.876 39.9219 536.118 40.7031C534.36 41.4844 532.316 41.875 529.985 41.875C526.925 41.875 524.393 41.2109 522.388 39.8828C520.382 38.5547 519.113 36.6146 518.579 34.0625L522.954 32.9688C523.371 34.5833 524.159 35.7943 525.317 36.6016C526.489 37.4089 528.019 37.8125 529.907 37.8125C532.056 37.8125 533.761 37.3568 535.024 36.4453C536.3 35.5208 536.938 34.4141 536.938 33.125C536.938 32.0833 536.574 31.2109 535.845 30.5078C535.116 29.7917 533.996 29.2578 532.485 28.9062L527.485 27.7344C524.738 27.0833 522.72 26.0742 521.431 24.707C520.155 23.3268 519.517 21.6016 519.517 19.5312C519.517 17.8385 519.992 16.3411 520.942 15.0391C521.906 13.737 523.215 12.7148 524.868 11.9727C526.535 11.2305 528.423 10.8594 530.532 10.8594C533.501 10.8594 535.832 11.5104 537.524 12.8125C539.23 14.1146 540.441 15.8333 541.157 17.9688Z" fill="#6C61EA"/>
<path d="M499.443 41.25V11.25H503.896V15.7813H504.209C504.756 14.2969 505.745 13.0924 507.178 12.168C508.61 11.2435 510.225 10.7812 512.021 10.7812C512.36 10.7812 512.783 10.7878 513.291 10.8008C513.799 10.8138 514.183 10.8333 514.443 10.8594V15.5469C514.287 15.5078 513.929 15.4492 513.369 15.3711C512.822 15.2799 512.243 15.2344 511.631 15.2344C510.173 15.2344 508.87 15.5404 507.725 16.1523C506.592 16.7513 505.693 17.5846 505.029 18.6523C504.378 19.707 504.053 20.9115 504.053 22.2656V41.25H499.443Z" fill="#6C61EA"/>
<path d="M477.28 41.9531C475.379 41.9531 473.654 41.5951 472.104 40.8789C470.555 40.1497 469.325 39.1016 468.413 37.7344C467.502 36.3542 467.046 34.6875 467.046 32.7344C467.046 31.0156 467.384 29.6224 468.062 28.5547C468.739 27.474 469.644 26.6276 470.776 26.0156C471.909 25.4036 473.159 24.9479 474.526 24.6484C475.907 24.3359 477.293 24.0885 478.687 23.9062C480.509 23.6719 481.987 23.4961 483.12 23.3789C484.266 23.2487 485.099 23.0339 485.62 22.7344C486.154 22.4349 486.421 21.9141 486.421 21.1719V21.0156C486.421 19.0885 485.894 17.5911 484.839 16.5234C483.797 15.4557 482.215 14.9219 480.093 14.9219C477.892 14.9219 476.167 15.4036 474.917 16.3672C473.667 17.3307 472.788 18.3594 472.28 19.4531L467.905 17.8906C468.687 16.0677 469.728 14.6484 471.03 13.6328C472.345 12.6042 473.778 11.888 475.327 11.4844C476.89 11.0677 478.426 10.8594 479.937 10.8594C480.9 10.8594 482.007 10.9766 483.257 11.2109C484.52 11.4323 485.737 11.8945 486.909 12.5977C488.094 13.3008 489.077 14.362 489.858 15.7812C490.64 17.2005 491.03 19.1016 491.03 21.4844V41.25H486.421V37.1875H486.187C485.874 37.8385 485.353 38.5352 484.624 39.2773C483.895 40.0195 482.925 40.651 481.714 41.1719C480.503 41.6927 479.025 41.9531 477.28 41.9531ZM477.983 37.8125C479.806 37.8125 481.343 37.4544 482.593 36.7383C483.856 36.0221 484.806 35.0977 485.444 33.9648C486.095 32.832 486.421 31.6406 486.421 30.3906V26.1719C486.226 26.4063 485.796 26.6211 485.132 26.8164C484.481 26.9987 483.726 27.1615 482.866 27.3047C482.02 27.4349 481.193 27.5521 480.386 27.6562C479.591 27.7474 478.947 27.8255 478.452 27.8906C477.254 28.0469 476.134 28.3008 475.093 28.6523C474.064 28.9909 473.231 29.5052 472.593 30.1953C471.968 30.8724 471.655 31.7969 471.655 32.9688C471.655 34.5703 472.248 35.7812 473.433 36.6016C474.631 37.4089 476.147 37.8125 477.983 37.8125Z" fill="#6C61EA"/>
<path d="M460.01 1.25V41.25H455.4V1.25H460.01Z" fill="#6C61EA"/>
<path d="M434.771 41.875C432.062 41.875 429.686 41.2305 427.642 39.9414C425.61 38.6523 424.022 36.849 422.876 34.5312C421.743 32.2135 421.177 29.5052 421.177 26.4062C421.177 23.2812 421.743 20.5534 422.876 18.2227C424.022 15.8919 425.61 14.082 427.642 12.793C429.686 11.5039 432.062 10.8594 434.771 10.8594C437.479 10.8594 439.849 11.5039 441.88 12.793C443.924 14.082 445.513 15.8919 446.646 18.2227C447.791 20.5534 448.364 23.2812 448.364 26.4062C448.364 29.5052 447.791 32.2135 446.646 34.5312C445.513 36.849 443.924 38.6523 441.88 39.9414C439.849 41.2305 437.479 41.875 434.771 41.875ZM434.771 37.7344C436.828 37.7344 438.521 37.207 439.849 36.1523C441.177 35.0977 442.16 33.7109 442.798 31.9922C443.436 30.2734 443.755 28.4115 443.755 26.4062C443.755 24.401 443.436 22.5326 442.798 20.8008C442.16 19.069 441.177 17.6693 439.849 16.6016C438.521 15.5339 436.828 15 434.771 15C432.713 15 431.021 15.5339 429.692 16.6016C428.364 17.6693 427.381 19.069 426.743 20.8008C426.105 22.5326 425.786 24.401 425.786 26.4062C425.786 28.4115 426.105 30.2734 426.743 31.9922C427.381 33.7109 428.364 35.0977 429.692 36.1523C431.021 37.207 432.713 37.7344 434.771 37.7344Z" fill="#6C61EA"/>
<path d="M394.697 23.2031V41.25H390.088V1.25H394.697V15.9375H395.088C395.791 14.388 396.846 13.1576 398.252 12.2461C399.671 11.3216 401.559 10.8594 403.916 10.8594C405.96 10.8594 407.751 11.2695 409.287 12.0898C410.824 12.8971 412.015 14.1406 412.861 15.8203C413.721 17.487 414.15 19.6094 414.15 22.1875V41.25H409.541V22.5C409.541 20.1172 408.923 18.2747 407.686 16.9727C406.462 15.6576 404.762 15 402.588 15C401.077 15 399.723 15.319 398.525 15.957C397.34 16.5951 396.403 17.526 395.713 18.75C395.036 19.974 394.697 21.4583 394.697 23.2031Z" fill="#6C61EA"/>
<path d="M371.553 41.875C368.74 41.875 366.318 41.2109 364.287 39.8828C362.256 38.5547 360.693 36.7253 359.6 34.3945C358.506 32.0638 357.959 29.401 357.959 26.4062C357.959 23.3594 358.519 20.6706 359.639 18.3398C360.771 15.9961 362.347 14.1667 364.365 12.8516C366.396 11.5234 368.766 10.8594 371.475 10.8594C373.584 10.8594 375.485 11.25 377.178 12.0312C378.87 12.8125 380.257 13.9062 381.338 15.3125C382.419 16.7187 383.089 18.3594 383.35 20.2344H378.74C378.389 18.8672 377.607 17.6562 376.396 16.6016C375.199 15.5339 373.584 15 371.553 15C369.756 15 368.18 15.4687 366.826 16.4062C365.485 17.3307 364.437 18.6393 363.682 20.332C362.939 22.0117 362.568 23.9844 362.568 26.25C362.568 28.5677 362.933 30.5859 363.662 32.3047C364.404 34.0234 365.446 35.3581 366.787 36.3086C368.141 37.2591 369.73 37.7344 371.553 37.7344C372.751 37.7344 373.838 37.526 374.814 37.1094C375.791 36.6927 376.618 36.0938 377.295 35.3125C377.972 34.5312 378.454 33.5937 378.74 32.5H383.35C383.089 34.2708 382.445 35.8659 381.416 37.2852C380.4 38.6914 379.053 39.8112 377.373 40.6445C375.706 41.4648 373.766 41.875 371.553 41.875Z" fill="#6C61EA"/>
<path d="M346.792 11.25C346.558 9.27084 345.607 7.73438 343.94 6.64063C342.274 5.54688 340.229 5 337.808 5C336.037 5 334.487 5.28646 333.159 5.85938C331.844 6.43229 330.815 7.22005 330.073 8.22266C329.344 9.22526 328.979 10.3646 328.979 11.6406C328.979 12.7083 329.233 13.6263 329.741 14.3945C330.262 15.1497 330.926 15.7812 331.733 16.2891C332.541 16.7839 333.387 17.194 334.272 17.5195C335.158 17.832 335.972 18.0859 336.714 18.2812L340.776 19.375C341.818 19.6484 342.977 20.026 344.253 20.5078C345.542 20.9896 346.772 21.6471 347.944 22.4805C349.129 23.3008 350.106 24.3555 350.874 25.6445C351.642 26.9336 352.026 28.5156 352.026 30.3906C352.026 32.5521 351.46 34.5052 350.327 36.25C349.207 37.9948 347.567 39.3815 345.405 40.4102C343.257 41.4388 340.646 41.9531 337.573 41.9531C334.709 41.9531 332.228 41.4909 330.132 40.5664C328.049 39.6419 326.408 38.3529 325.21 36.6992C324.025 35.0456 323.354 33.125 323.198 30.9375H328.198C328.328 32.4479 328.836 33.6979 329.722 34.6875C330.62 35.6641 331.753 36.3932 333.12 36.875C334.5 37.3437 335.985 37.5781 337.573 37.5781C339.422 37.5781 341.082 37.2786 342.554 36.6797C344.025 36.0677 345.19 35.2214 346.05 34.1406C346.909 33.0469 347.339 31.7708 347.339 30.3125C347.339 28.9844 346.968 27.9036 346.226 27.0703C345.483 26.237 344.507 25.5599 343.296 25.0391C342.085 24.5182 340.776 24.0625 339.37 23.6719L334.448 22.2656C331.323 21.3672 328.849 20.0846 327.026 18.418C325.203 16.7513 324.292 14.5703 324.292 11.875C324.292 9.63542 324.897 7.68229 326.108 6.01563C327.332 4.33594 328.973 3.03385 331.03 2.10938C333.101 1.17188 335.412 0.703125 337.964 0.703125C340.542 0.703125 342.834 1.16536 344.839 2.08984C346.844 3.0013 348.433 4.2513 349.604 5.83984C350.789 7.42839 351.414 9.23177 351.479 11.25H346.792Z" fill="#6C61EA"/>
<path d="M288.193 41.875C285.485 41.875 283.109 41.2305 281.064 39.9414C279.033 38.6523 277.445 36.849 276.299 34.5312C275.166 32.2135 274.6 29.5052 274.6 26.4062C274.6 23.2812 275.166 20.5534 276.299 18.2227C277.445 15.8919 279.033 14.082 281.064 12.793C283.109 11.5039 285.485 10.8594 288.193 10.8594C290.902 10.8594 293.271 11.5039 295.303 12.793C297.347 14.082 298.936 15.8919 300.068 18.2227C301.214 20.5534 301.787 23.2812 301.787 26.4062C301.787 29.5052 301.214 32.2135 300.068 34.5312C298.936 36.849 297.347 38.6523 295.303 39.9414C293.271 41.2305 290.902 41.875 288.193 41.875ZM288.193 37.7344C290.251 37.7344 291.943 37.207 293.271 36.1523C294.6 35.0977 295.583 33.7109 296.221 31.9922C296.859 30.2734 297.178 28.4115 297.178 26.4062C297.178 24.401 296.859 22.5326 296.221 20.8008C295.583 19.069 294.6 17.6693 293.271 16.6016C291.943 15.5339 290.251 15 288.193 15C286.136 15 284.443 15.5339 283.115 16.6016C281.787 17.6693 280.804 19.069 280.166 20.8008C279.528 22.5326 279.209 24.401 279.209 26.4062C279.209 28.4115 279.528 30.2734 280.166 31.9922C280.804 33.7109 281.787 35.0977 283.115 36.1523C284.443 37.207 286.136 37.7344 288.193 37.7344Z" fill="black"/>
<path d="M269.395 11.25V15.1562H253.848V11.25H269.395ZM258.379 4.0625H262.988V32.6562C262.988 33.9583 263.177 34.9349 263.555 35.5859C263.945 36.224 264.44 36.6536 265.039 36.875C265.651 37.0833 266.296 37.1875 266.973 37.1875C267.48 37.1875 267.897 37.1615 268.223 37.1094C268.548 37.0443 268.809 36.9922 269.004 36.9531L269.941 41.0938C269.629 41.2109 269.193 41.3281 268.633 41.4453C268.073 41.5755 267.363 41.6406 266.504 41.6406C265.202 41.6406 263.926 41.3607 262.676 40.8008C261.439 40.2409 260.41 39.388 259.59 38.2422C258.783 37.0964 258.379 35.651 258.379 33.9062V4.0625Z" fill="black"/>
<path d="M221.445 41.875C218.555 41.875 216.061 41.237 213.965 39.9609C211.882 38.6719 210.273 36.875 209.141 34.5703C208.021 32.2526 207.461 29.5573 207.461 26.4844C207.461 23.4115 208.021 20.7031 209.141 18.3594C210.273 16.0026 211.849 14.1667 213.867 12.8516C215.898 11.5234 218.268 10.8594 220.977 10.8594C222.539 10.8594 224.082 11.1198 225.605 11.6406C227.129 12.1615 228.516 13.0078 229.766 14.1797C231.016 15.3385 232.012 16.875 232.754 18.7891C233.496 20.7031 233.867 23.0599 233.867 25.8594V27.8125H210.742V23.8281H229.18C229.18 22.1354 228.841 20.625 228.164 19.2969C227.5 17.9687 226.549 16.9206 225.312 16.1523C224.089 15.3841 222.643 15 220.977 15C219.141 15 217.552 15.4557 216.211 16.3672C214.883 17.2656 213.861 18.4375 213.145 19.8828C212.428 21.3281 212.07 22.8776 212.07 24.5312V27.1875C212.07 29.4531 212.461 31.3737 213.242 32.9492C214.036 34.5117 215.137 35.7031 216.543 36.5234C217.949 37.3307 219.583 37.7344 221.445 37.7344C222.656 37.7344 223.75 37.5651 224.727 37.2266C225.716 36.875 226.569 36.3542 227.285 35.6641C228.001 34.9609 228.555 34.0885 228.945 33.0469L233.398 34.2969C232.93 35.8073 232.142 37.1354 231.035 38.2812C229.928 39.4141 228.561 40.2995 226.934 40.9375C225.306 41.5625 223.477 41.875 221.445 41.875Z" fill="black"/>
<path d="M161.064 41.25V11.25H165.518V15.9375H165.908C166.533 14.3359 167.542 13.0924 168.936 12.207C170.329 11.3086 172.002 10.8594 173.955 10.8594C175.934 10.8594 177.581 11.3086 178.896 12.207C180.225 13.0924 181.26 14.3359 182.002 15.9375H182.314C183.083 14.388 184.235 13.1576 185.771 12.2461C187.308 11.3216 189.15 10.8594 191.299 10.8594C193.981 10.8594 196.175 11.6992 197.881 13.3789C199.587 15.0456 200.439 17.6432 200.439 21.1719V41.25H195.83V21.1719C195.83 18.9583 195.225 17.3763 194.014 16.4258C192.803 15.4753 191.377 15 189.736 15C187.627 15 185.993 15.638 184.834 16.9141C183.675 18.1771 183.096 19.7786 183.096 21.7188V41.25H178.408V20.7031C178.408 18.9974 177.855 17.6237 176.748 16.582C175.641 15.5273 174.215 15 172.471 15C171.273 15 170.153 15.319 169.111 15.957C168.083 16.5951 167.249 17.4805 166.611 18.6133C165.986 19.7331 165.674 21.0286 165.674 22.5V41.25H161.064Z" fill="black"/>
<path d="M140.435 41.875C137.726 41.875 135.35 41.2305 133.306 39.9414C131.274 38.6523 129.686 36.849 128.54 34.5312C127.407 32.2135 126.841 29.5052 126.841 26.4062C126.841 23.2812 127.407 20.5534 128.54 18.2227C129.686 15.8919 131.274 14.082 133.306 12.793C135.35 11.5039 137.726 10.8594 140.435 10.8594C143.143 10.8594 145.513 11.5039 147.544 12.793C149.588 14.082 151.177 15.8919 152.31 18.2227C153.455 20.5534 154.028 23.2812 154.028 26.4062C154.028 29.5052 153.455 32.2135 152.31 34.5312C151.177 36.849 149.588 38.6523 147.544 39.9414C145.513 41.2305 143.143 41.875 140.435 41.875ZM140.435 37.7344C142.492 37.7344 144.185 37.207 145.513 36.1523C146.841 35.0977 147.824 33.7109 148.462 31.9922C149.1 30.2734 149.419 28.4115 149.419 26.4062C149.419 24.401 149.1 22.5326 148.462 20.8008C147.824 19.069 146.841 17.6693 145.513 16.6016C144.185 15.5339 142.492 15 140.435 15C138.377 15 136.685 15.5339 135.356 16.6016C134.028 17.6693 133.045 19.069 132.407 20.8008C131.769 22.5326 131.45 24.401 131.45 26.4062C131.45 28.4115 131.769 30.2734 132.407 31.9922C133.045 33.7109 134.028 35.0977 135.356 36.1523C136.685 37.207 138.377 37.7344 140.435 37.7344Z" fill="black"/>
<path d="M109.712 41.875C106.899 41.875 104.478 41.2109 102.446 39.8828C100.415 38.5547 98.8525 36.7253 97.7588 34.3945C96.665 32.0638 96.1182 29.401 96.1182 26.4062C96.1182 23.3594 96.6781 20.6706 97.7979 18.3398C98.9307 15.9961 100.506 14.1667 102.524 12.8516C104.556 11.5234 106.925 10.8594 109.634 10.8594C111.743 10.8594 113.644 11.25 115.337 12.0312C117.03 12.8125 118.416 13.9062 119.497 15.3125C120.578 16.7187 121.248 18.3594 121.509 20.2344H116.899C116.548 18.8672 115.767 17.6562 114.556 16.6016C113.358 15.5339 111.743 15 109.712 15C107.915 15 106.34 15.4687 104.985 16.4062C103.644 17.3307 102.596 18.6393 101.841 20.332C101.099 22.0117 100.728 23.9844 100.728 26.25C100.728 28.5677 101.092 30.5859 101.821 32.3047C102.563 34.0234 103.605 35.3581 104.946 36.3086C106.3 37.2591 107.889 37.7344 109.712 37.7344C110.91 37.7344 111.997 37.526 112.974 37.1094C113.95 36.6927 114.777 36.0938 115.454 35.3125C116.131 34.5312 116.613 33.5937 116.899 32.5H121.509C121.248 34.2708 120.604 35.8659 119.575 37.2852C118.56 38.6914 117.212 39.8112 115.532 40.6445C113.866 41.4648 111.925 41.875 109.712 41.875Z" fill="black"/>
<path d="M89.082 1.25V41.25H84.4727V1.25H89.082Z" fill="black"/>
<path d="M65.0391 41.875C62.1484 41.875 59.6549 41.237 57.5586 39.9609C55.4753 38.6719 53.8672 36.875 52.7344 34.5703C51.6146 32.2526 51.0547 29.5573 51.0547 26.4844C51.0547 23.4115 51.6146 20.7031 52.7344 18.3594C53.8672 16.0026 55.4427 14.1667 57.4609 12.8516C59.4922 11.5234 61.862 10.8594 64.5703 10.8594C66.1328 10.8594 67.6758 11.1198 69.1992 11.6406C70.7227 12.1615 72.1094 13.0078 73.3594 14.1797C74.6094 15.3385 75.6055 16.875 76.3477 18.7891C77.0898 20.7031 77.4609 23.0599 77.4609 25.8594V27.8125H54.3359V23.8281H72.7734C72.7734 22.1354 72.4349 20.625 71.7578 19.2969C71.0937 17.9687 70.1432 16.9206 68.9062 16.1523C67.6823 15.3841 66.237 15 64.5703 15C62.7344 15 61.1458 15.4557 59.8047 16.3672C58.4766 17.2656 57.4544 18.4375 56.7383 19.8828C56.0221 21.3281 55.6641 22.8776 55.6641 24.5312V27.1875C55.6641 29.4531 56.0547 31.3737 56.8359 32.9492C57.6302 34.5117 58.7305 35.7031 60.1367 36.5234C61.543 37.3307 63.1771 37.7344 65.0391 37.7344C66.25 37.7344 67.3437 37.5651 68.3203 37.2266C69.3099 36.875 70.1628 36.3542 70.8789 35.6641C71.5951 34.9609 72.1484 34.0885 72.5391 33.0469L76.9922 34.2969C76.5234 35.8073 75.7357 37.1354 74.6289 38.2812C73.5221 39.4141 72.1549 40.2995 70.5273 40.9375C68.8997 41.5625 67.0703 41.875 65.0391 41.875Z" fill="black"/>
<path d="M10.9375 41.25L0 1.25H4.92188L13.2812 33.8281H13.6719L22.1875 1.25H27.6563L36.1719 33.8281H36.5625L44.9219 1.25H49.8438L38.9062 41.25H33.9062L25.0781 9.375H24.7656L15.9375 41.25H10.9375Z" fill="black"/>
</svg>
